<?xml version="1.0" encoding="utf-8"?>
<!-- Generator: Adobe Illustrator 16.0.0, SVG Export Plug-In . SVG Version: 6.00 Build 0)  -->
<!DOCTYPE svg PUBLIC "-//W3C//DTD SVG 1.1//EN" "http://www.w3.org/Graphics/SVG/1.1/DTD/svg11.dtd">
<svg version="1.1" id="Layer_1" xmlns="http://www.w3.org/2000/svg" xmlns:xlink="http://www.w3.org/1999/xlink" x="0px" y="0px"
	 width="448px" height="448px" viewBox="0 0 448 448" enable-background="new 0 0 448 448" xml:space="preserve">
<g>
	<path fill="#FFFFFF" d="M336,128H112c-4.418,0-8,3.582-8,8v176c0,4.418,3.582,8,8,8h224c4.418,0,8-3.582,8-8V136
		C344,131.582,340.418,128,336,128z M314.375,144L224,221.465L133.625,144H314.375z M328,304H120V153.391l98.793,84.68
		c1.449,1.246,3.297,1.93,5.207,1.93s3.758-0.684,5.207-1.93L328,153.391V304z"/>
	<polygon points="314.375,144 133.625,144 224,221.465 	"/>
	<path d="M224,240c-1.91,0-3.758-0.684-5.207-1.93L120,153.391V304h208V153.391l-98.793,84.68C227.758,239.316,225.91,240,224,240z"
		/>
	<path d="M224,0C100.289,0,0,100.289,0,224s100.289,224,224,224s224-100.289,224-224C447.859,100.348,347.652,0.141,224,0z M344,312
		c0,4.418-3.582,8-8,8H112c-4.418,0-8-3.582-8-8V136c0-4.418,3.582-8,8-8h224c4.418,0,8,3.582,8,8V312z"/>
</g>
</svg>
