<?xml version="1.0" encoding="utf-8"?>
<!-- Generator: Adobe Illustrator 16.0.0, SVG Export Plug-In . SVG Version: 6.00 Build 0)  -->
<!DOCTYPE svg PUBLIC "-//W3C//DTD SVG 1.1//EN" "http://www.w3.org/Graphics/SVG/1.1/DTD/svg11.dtd">
<svg version="1.1" id="Layer_1" xmlns="http://www.w3.org/2000/svg" xmlns:xlink="http://www.w3.org/1999/xlink" x="0px" y="0px"
	 width="512px" height="512px" viewBox="0 0 512 512" enable-background="new 0 0 512 512" xml:space="preserve">
<g>
	<path fill="#FFFFFF" d="M150.852,109c-21.328,0-35.273,14.004-35.273,32.41c0,18,13.531,32.402,34.453,32.402h0.406
		c21.742,0,35.273-14.402,35.273-32.402C185.305,123.004,172.18,109,150.852,109z"/>
	<rect x="119.262" y="199.426" fill="#FFFFFF" width="62.348" height="187.574"/>
	<path fill="#FFFFFF" d="M334.645,195.023c-33.078,0-47.902,18.18-56.188,30.961v-26.559h-62.344c0.816,17.598,0,187.574,0,187.574
		h62.344V282.25c0-5.605,0.402-11.207,2.051-15.215c4.508-11.199,14.766-22.801,31.988-22.801c22.559,0,31.586,17.199,31.586,42.418
		V387h62.34V279.445C406.422,221.832,375.664,195.023,334.645,195.023z"/>
	<path d="M475.074,0H36.926C16.531,0,0,16.531,0,36.926v438.148C0,495.469,16.531,512,36.926,512h438.148
		C495.469,512,512,495.469,512,475.074V36.926C512,16.531,495.469,0,475.074,0z M150.438,173.812h-0.406
		c-20.922,0-34.453-14.402-34.453-32.402c0-18.406,13.945-32.41,35.273-32.41s34.453,14.004,34.859,32.41
		C185.711,159.41,172.18,173.812,150.438,173.812z M181.609,199.426V387h-62.348V199.426H181.609z M406.422,387h-62.34V286.652
		c0-25.219-9.027-42.418-31.586-42.418c-17.223,0-27.48,11.602-31.988,22.801c-1.648,4.008-2.051,9.609-2.051,15.215V387h-62.344
		c0,0,0.816-169.977,0-187.574h62.344v26.559c8.285-12.781,23.109-30.961,56.188-30.961c41.02,0,71.777,26.809,71.777,84.422V387z"
		/>
</g>
</svg>
