<?xml version="1.0" encoding="utf-8"?>
<!-- Generator: Adobe Illustrator 16.0.0, SVG Export Plug-In . SVG Version: 6.00 Build 0)  -->
<!DOCTYPE svg PUBLIC "-//W3C//DTD SVG 1.1//EN" "http://www.w3.org/Graphics/SVG/1.1/DTD/svg11.dtd">
<svg version="1.1" id="Layer_1" xmlns="http://www.w3.org/2000/svg" xmlns:xlink="http://www.w3.org/1999/xlink" x="0px" y="0px"
	 width="100px" height="100px" viewBox="0 0 100 100" enable-background="new 0 0 100 100" xml:space="preserve">
<g>
	<path fill="#007BB5" d="M0,93.776C0,64.498,0,35.22,0,5.94c0.077-0.185,0.174-0.365,0.229-0.557
		c0.729-2.538,2.388-4.178,4.846-5.039C5.49,0.198,5.927,0.113,6.353,0c29.13,0,58.26,0,87.391,0
		c0.056,0.038,0.107,0.097,0.168,0.111C97.905,1.049,100,3.687,100,7.782c0,22.93,0,45.859,0,68.79
		c0,5.302-0.01,10.605,0.005,15.907c0.005,2.082-0.658,3.871-2.126,5.36c-1.188,1.205-2.667,1.806-4.277,2.161
		c-29.082,0-58.165,0-87.249,0c-0.179-0.05-0.356-0.105-0.537-0.147c-2.668-0.636-4.511-2.218-5.46-4.81
		C0.207,94.634,0.117,94.199,0,93.776z M53.779,85.188c0-0.32,0-0.577,0-0.836c0-7.377-0.004-14.755,0.003-22.131
		c0.002-2.359,0.062-4.715,0.727-7.006c0.872-3.008,2.701-5.042,5.866-5.624c0.939-0.173,1.921-0.236,2.875-0.194
		c3.344,0.146,5.415,1.802,6.38,5.005c0.584,1.939,0.712,3.937,0.715,5.942c0.01,7.99,0.005,15.979,0.005,23.97
		c0,0.276,0,0.552,0,0.867c4.977,0,9.88,0,14.822,0c0.012-0.222,0.033-0.405,0.033-0.587c-0.011-9.263-0.005-18.524-0.047-27.787
		c-0.015-3.261-0.367-6.493-1.299-9.635c-1.235-4.168-3.541-7.467-7.632-9.278c-3.15-1.395-6.485-1.762-9.872-1.555
		c-5.504,0.337-9.938,2.624-12.872,7.456c-0.048,0.077-0.035,0.193-0.049,0.292c-0.081-0.056-0.162-0.112-0.241-0.167
		c0-2.128,0-4.257,0-6.388c-4.784,0-9.495,0-14.201,0c0,15.913,0,31.767,0,47.656C43.912,85.188,48.797,85.188,53.779,85.188z
		 M14.827,37.497c0,15.929,0,31.783,0,47.679c4.95,0,9.873,0,14.791,0c0-15.922,0-31.791,0-47.679
		C24.676,37.497,19.79,37.497,14.827,37.497z M13.641,22.286c-0.02,4.793,3.754,8.67,8.459,8.689
		c4.855,0.019,8.705-3.747,8.752-8.563c0.046-4.734-3.832-8.647-8.589-8.667C17.523,13.727,13.659,17.554,13.641,22.286z"/>
	<path fill-rule="evenodd" clip-rule="evenodd" fill="#FDFDFE" d="M53.779,85.188c-4.982,0-9.867,0-14.787,0
		c0-15.89,0-31.743,0-47.656c4.707,0,9.417,0,14.201,0c0,2.131,0,4.26,0,6.388c0.079,0.056,0.16,0.111,0.241,0.167
		c0.014-0.098,0.001-0.214,0.049-0.292c2.935-4.833,7.368-7.119,12.872-7.456c3.387-0.207,6.722,0.16,9.872,1.555
		c4.091,1.812,6.396,5.11,7.632,9.278c0.932,3.143,1.284,6.375,1.299,9.635c0.042,9.263,0.036,18.524,0.047,27.787
		c0,0.182-0.021,0.365-0.033,0.587c-4.942,0-9.846,0-14.822,0c0-0.315,0-0.591,0-0.867c0-7.99,0.005-15.979-0.005-23.97
		c-0.003-2.006-0.131-4.003-0.715-5.942c-0.965-3.203-3.036-4.86-6.38-5.005c-0.954-0.042-1.936,0.021-2.875,0.194
		c-3.165,0.581-4.994,2.616-5.866,5.624c-0.664,2.291-0.725,4.646-0.727,7.006c-0.007,7.376-0.003,14.754-0.003,22.131
		C53.779,84.611,53.779,84.868,53.779,85.188z"/>
	<path fill-rule="evenodd" clip-rule="evenodd" fill="#FDFEFE" d="M14.827,37.497c4.963,0,9.849,0,14.791,0
		c0,15.888,0,31.757,0,47.679c-4.917,0-9.841,0-14.791,0C14.827,69.28,14.827,53.426,14.827,37.497z"/>
	<path fill-rule="evenodd" clip-rule="evenodd" fill="#FDFDFE" d="M13.641,22.286c0.018-4.732,3.882-8.56,8.622-8.541
		c4.758,0.019,8.635,3.933,8.589,8.667c-0.047,4.816-3.897,8.582-8.752,8.563C17.396,30.956,13.622,27.08,13.641,22.286z"/>
</g>
</svg>
