<?xml version="1.0" encoding="utf-8"?>
<!-- Generator: Adobe Illustrator 16.0.0, SVG Export Plug-In . SVG Version: 6.00 Build 0)  -->
<!DOCTYPE svg PUBLIC "-//W3C//DTD SVG 1.1//EN" "http://www.w3.org/Graphics/SVG/1.1/DTD/svg11.dtd">
<svg version="1.1" id="Layer_1" xmlns="http://www.w3.org/2000/svg" xmlns:xlink="http://www.w3.org/1999/xlink" x="0px" y="0px"
	 width="100px" height="100px" viewBox="0 0 100 100" enable-background="new 0 0 100 100" xml:space="preserve">
<g>
	<path fill="#FFFFFF" d="M100.622,31.411c-0.711,0-1.289-0.041-1.861,0.006c-11.626,0.942-20.995,10.793-21.217,22.505
		c-0.145,7.664-0.01,15.333-0.049,22.999c-0.058,11.104-8.646,18.835-19.674,17.581c-8.155-0.927-15.186-7.36-14.725-16.302
		c0.173-3.36,0.028-6.738,0.028-10.108c0-3.762,0-7.524,0-11.289c-2.182,0-4.061,0-6.006,0c0,8.259-0.177,16.344,0.067,24.415
		c0.142,4.686,2.29,8.745,5.531,12.158c6.581,6.932,17.066,9.239,26.065,5.755c8.919-3.453,14.702-11.942,14.773-21.826
		c0.056-7.583-0.024-15.165,0.029-22.747c0.037-5.163,2.062-9.476,5.921-12.909c3.139-2.792,6.918-4.021,11.116-4.332
		C100.622,35.313,100.622,33.417,100.622,31.411z M25.936,21.345c0,4.038-0.166,7.976,0.061,11.89
		c0.143,2.466,0.587,4.999,1.41,7.319c1.174,3.312,2.648,6.551,4.353,9.622c0.61,1.098,2.209,2.169,3.452,2.291
		c3.248,0.318,6.557,0.246,9.821,0.029c1.083-0.072,2.543-0.788,3.087-1.67c5.593-9.044,7.485-18.879,5.71-29.519
		c-2.545-0.083-4.891-0.483-7.072,2.345c-3.134,4.063-9.983,4.121-13.15,0.089C31.359,20.878,28.977,21.172,25.936,21.345z
		 M35.162,9.724c0.219-0.068,0.438-0.135,0.656-0.203c0.413,0.958,1.136,1.902,1.183,2.878c0.152,3.183,0.172,6.383,0.02,9.566
		c-0.114,2.363,1.42,2.651,3.043,2.673s3.174-0.217,3.094-2.595c-0.129-3.85-0.034-7.708-0.034-11.518
		c2.239-0.753,2.645-2.444,1.643-6.362c-3.161,0-6.321,0-9.605,0C35.162,6.093,35.162,7.908,35.162,9.724z"/>
	<path fill-rule="evenodd" clip-rule="evenodd" d="M29.98,0c0,1.246,0,2.493,0,3.893c1.021,0.099,1.899,0.183,2.946,0.284
		c0,2.545,0,5.036,0,7.474c4.061,1.144,1.04,4.25,2.597,6.376c-2.834,0-5.044,0-7.564,0c0-6.013,0-12.02,0-18.027
		C28.632,0,29.306,0,29.98,0z"/>
	<path fill-rule="evenodd" clip-rule="evenodd" d="M52.225,0c0,5.946,0,11.892,0,18.018c-2.335,0-4.545,0-6.76,0
		c-0.887-4.319-0.59-5.554,1.722-6.171c0-2.49,0-5.056,0-7.703c1.053-0.066,1.869-0.117,3.016-0.189c0-1.339,0-2.646,0-3.954
		C50.876,0,51.551,0,52.225,0z"/>
	<path fill-rule="evenodd" clip-rule="evenodd" d="M100.622,31.411c0,2.006,0,3.902,0,5.906c-4.198,0.311-7.978,1.54-11.116,4.332
		c-3.859,3.433-5.884,7.746-5.921,12.909c-0.054,7.582,0.026,15.164-0.029,22.747c-0.071,9.884-5.854,18.373-14.773,21.826
		c-8.999,3.484-19.484,1.177-26.065-5.755c-3.241-3.413-5.39-7.473-5.531-12.158c-0.244-8.071-0.067-16.156-0.067-24.415
		c1.945,0,3.824,0,6.006,0c0,3.765,0,7.527,0,11.289c0,3.37,0.145,6.748-0.028,10.108c-0.461,8.941,6.57,15.375,14.725,16.302
		c11.028,1.254,19.616-6.478,19.674-17.581c0.039-7.666-0.096-15.335,0.049-22.999c0.222-11.712,9.591-21.563,21.217-22.505
		C99.333,31.37,99.911,31.411,100.622,31.411z"/>
	<path fill-rule="evenodd" clip-rule="evenodd" d="M25.936,21.345c3.042-0.173,5.424-0.467,7.673,2.397
		c3.167,4.032,10.016,3.974,13.15-0.089c2.181-2.828,4.527-2.428,7.072-2.345c1.775,10.64-0.117,20.475-5.71,29.519
		c-0.544,0.882-2.004,1.598-3.087,1.67c-3.265,0.217-6.574,0.289-9.821-0.029c-1.243-0.122-2.842-1.193-3.452-2.291
		c-1.705-3.071-3.179-6.31-4.353-9.622c-0.822-2.32-1.267-4.853-1.41-7.319C25.77,29.32,25.936,25.382,25.936,21.345z"/>
	<path fill-rule="evenodd" clip-rule="evenodd" d="M35.162,9.724c0-1.816,0-3.631,0-5.561c3.284,0,6.445,0,9.606-0.001
		c1.001,3.918,0.596,5.61-1.644,6.363c0,3.81-0.095,7.667,0.034,11.518c0.08,2.378-1.471,2.617-3.094,2.595s-3.157-0.31-3.043-2.673
		c0.153-3.183,0.132-6.383-0.02-9.566c-0.047-0.976-0.77-1.919-1.183-2.878C35.599,9.589,35.38,9.656,35.162,9.724z"/>
</g>
<rect x="29" width="2" height="3"/>
<rect x="32" width="2" height="3"/>
<rect x="35" width="2" height="3"/>
<rect x="38" width="2" height="3"/>
<rect x="41" width="2" height="3"/>
<rect x="44" width="2" height="3"/>
<rect x="47" width="2" height="3"/>
<rect x="50" width="2" height="3"/>
</svg>
