<?xml version="1.0" encoding="utf-8"?>
<!-- Generator: Adobe Illustrator 16.0.0, SVG Export Plug-In . SVG Version: 6.00 Build 0)  -->
<!DOCTYPE svg PUBLIC "-//W3C//DTD SVG 1.1//EN" "http://www.w3.org/Graphics/SVG/1.1/DTD/svg11.dtd">
<svg version="1.1" id="Layer_1" xmlns="http://www.w3.org/2000/svg" xmlns:xlink="http://www.w3.org/1999/xlink" x="0px" y="0px"
	 width="100px" height="100px" viewBox="0 0 100 100" enable-background="new 0 0 100 100" xml:space="preserve">
<g>
	<path fill="#FEFEFE" d="M50.103,0C23.021-0.052,0.143,21.511,0,49.746c-0.142,28.141,22.398,50.017,49.601,50.252
		C77.057,100.235,99.856,77.897,100,50.251C100.146,22.707,77.669,0.052,50.103,0z"/>
	<path fill-rule="evenodd" clip-rule="evenodd" fill="#36447F" d="M50.103,0C77.669,0.052,100.146,22.707,100,50.251
		c-0.144,27.646-22.943,49.984-50.399,49.747C22.399,99.763-0.142,77.887,0,49.746C0.143,21.511,23.021-0.052,50.103,0z
		 M19.005,65.947c0.409-2.147,0.861-4.26,1.191-6.39c0.126-0.815,0.456-1.01,1.202-1.003c2.178,0.021,4.36,0.05,6.533-0.07
		c2.965-0.164,5.582-1.281,7.717-3.402c1.972-1.957,3.061-4.348,3.491-7.126c0.82-5.302-1.631-8.971-6.88-9.415
		c-4.368-0.369-8.783-0.214-13.176-0.224c-0.279,0-0.74,0.553-0.812,0.911c-1.17,5.822-2.259,11.661-3.437,17.481
		c-0.621,3.062-1.381,6.097-2.101,9.238C14.899,65.947,16.863,65.947,19.005,65.947z M66.997,38.275
		c-1.783,9.266-3.548,18.429-5.326,27.669c2.03,0,3.95,0,5.916,0c0.414-2.16,0.869-4.27,1.197-6.398
		c0.129-0.828,0.476-0.999,1.211-0.989c2.013,0.026,4.029-0.031,6.042-0.021c6.48,0.032,11.674-5.3,11.82-12.196
		c0.093-4.384-2.327-7.347-6.643-7.814c-2.484-0.269-5.004-0.204-7.509-0.243C71.495,38.248,69.283,38.275,66.997,38.275z
		 M45.007,31.053c-1.81,9.277-3.594,18.428-5.408,27.724c1.936,0,3.657,0.031,5.374-0.036c0.243-0.01,0.613-0.467,0.678-0.771
		c0.455-2.112,0.842-4.237,1.255-6.356c0.556-2.85,1.117-5.697,1.68-8.574c2.063,0,4.039-0.103,5.999,0.028
		c2.023,0.135,2.668,1.11,2.298,3.101c-0.325,1.756-0.68,3.507-1.016,5.261c-0.457,2.397-0.913,4.795-1.385,7.281
		c2.045,0,3.962,0,5.892,0c0.059-0.119,0.139-0.221,0.161-0.334c0.881-4.567,1.857-9.12,2.604-13.709
		c0.499-3.067-0.86-5.037-3.797-5.742c-1.461-0.351-3.003-0.409-4.513-0.478c-1.707-0.078-3.42-0.018-5.244-0.018
		c0.461-2.555,0.89-4.935,1.331-7.376C48.859,31.053,46.98,31.053,45.007,31.053z"/>
	<path fill-rule="evenodd" clip-rule="evenodd" fill="#C7D3F5" d="M19.005,65.947c-2.142,0-4.106,0-6.271,0
		c0.719-3.142,1.479-6.176,2.101-9.238c1.178-5.82,2.267-11.659,3.437-17.481c0.072-0.358,0.533-0.911,0.812-0.911
		c4.394,0.01,8.808-0.145,13.176,0.224c5.249,0.443,7.7,4.113,6.88,9.415c-0.43,2.778-1.519,5.169-3.491,7.126
		c-2.136,2.121-4.752,3.238-7.717,3.402c-2.173,0.12-4.355,0.091-6.533,0.07c-0.746-0.007-1.076,0.188-1.202,1.003
		C19.866,61.688,19.414,63.8,19.005,65.947z M23.431,42.791c-0.705,3.783-1.407,7.555-2.113,11.346c2.022,0,3.913,0.148,5.771-0.033
		c3.028-0.298,4.752-2.188,5.398-5.139c0.133-0.607,0.264-1.22,0.322-1.837c0.249-2.71-0.722-4.059-3.381-4.302
		C27.481,42.648,25.505,42.791,23.431,42.791z"/>
	<path fill-rule="evenodd" clip-rule="evenodd" fill="#C7D3F5" d="M66.997,38.275c2.286,0,4.498-0.028,6.709,0.007
		c2.505,0.04,5.024-0.025,7.509,0.243c4.315,0.467,6.735,3.43,6.643,7.814c-0.146,6.896-5.34,12.228-11.82,12.196
		c-2.013-0.011-4.029,0.047-6.042,0.021c-0.735-0.01-1.082,0.161-1.211,0.989c-0.328,2.129-0.783,4.238-1.197,6.398
		c-1.966,0-3.886,0-5.916,0C63.449,56.704,65.214,47.542,66.997,38.275z M69.878,54.209c1.988,0,3.843,0.133,5.671-0.034
		c2.222-0.202,4.224-1.067,5.094-3.35c0.523-1.375,0.869-2.867,1.013-4.334c0.192-1.969-0.664-3.187-2.584-3.463
		c-2.06-0.297-4.169-0.231-6.258-0.281c-0.207-0.005-0.53,0.24-0.613,0.445c-0.255,0.636-0.479,1.297-0.611,1.97
		C71.006,48.134,70.46,51.114,69.878,54.209z"/>
	<path fill-rule="evenodd" clip-rule="evenodd" fill="#C7D3F5" d="M45.007,31.053c1.973,0,3.852,0,5.909,0
		c-0.44,2.441-0.87,4.821-1.331,7.376c1.824,0,3.537-0.06,5.244,0.018c1.51,0.069,3.052,0.126,4.513,0.478
		c2.937,0.706,4.296,2.675,3.797,5.742c-0.746,4.589-1.723,9.142-2.604,13.709c-0.022,0.113-0.103,0.215-0.161,0.334
		c-1.93,0-3.847,0-5.892,0c0.472-2.486,0.928-4.884,1.385-7.281c0.336-1.754,0.69-3.505,1.016-5.261
		c0.37-1.991-0.274-2.965-2.298-3.101c-1.96-0.131-3.936-0.028-5.999-0.028c-0.563,2.877-1.125,5.725-1.68,8.574
		c-0.414,2.119-0.8,4.244-1.255,6.356c-0.065,0.304-0.435,0.761-0.678,0.771c-1.717,0.067-3.438,0.036-5.374,0.036
		C41.413,49.481,43.198,40.33,45.007,31.053z"/>
	<path fill-rule="evenodd" clip-rule="evenodd" fill="#374580" d="M23.431,42.791c2.075,0,4.05-0.143,5.997,0.035
		c2.66,0.243,3.63,1.592,3.381,4.302c-0.058,0.617-0.188,1.229-0.322,1.837c-0.646,2.951-2.37,4.841-5.398,5.139
		c-1.858,0.182-3.749,0.033-5.771,0.033C22.024,50.346,22.726,46.574,23.431,42.791z"/>
	<path fill-rule="evenodd" clip-rule="evenodd" fill="#374580" d="M69.878,54.209c0.582-3.095,1.128-6.075,1.711-9.047
		c0.133-0.673,0.356-1.334,0.611-1.97c0.083-0.206,0.406-0.45,0.613-0.445c2.089,0.05,4.198-0.016,6.258,0.281
		c1.92,0.276,2.776,1.494,2.584,3.463c-0.144,1.467-0.489,2.958-1.013,4.334c-0.87,2.283-2.872,3.148-5.094,3.35
		C73.721,54.342,71.866,54.209,69.878,54.209z"/>
</g>
</svg>
