<?xml version="1.0" encoding="utf-8"?>
<!-- Generator: Adobe Illustrator 16.0.0, SVG Export Plug-In . SVG Version: 6.00 Build 0)  -->
<!DOCTYPE svg PUBLIC "-//W3C//DTD SVG 1.1//EN" "http://www.w3.org/Graphics/SVG/1.1/DTD/svg11.dtd">
<svg version="1.1" id="Layer_1" xmlns="http://www.w3.org/2000/svg" xmlns:xlink="http://www.w3.org/1999/xlink" x="0px" y="0px"
	 width="100px" height="100px" viewBox="0 0 100 100" enable-background="new 0 0 100 100" xml:space="preserve">
<g>
	<g>
		<path fill-rule="evenodd" clip-rule="evenodd" fill="#040404" d="M100.195,62.305c-0.614,1.608-1.374,3.138-2.746,4.238
			c-3.134,2.512-6.596,4.38-10.627,4.93c-2.436,0.333-4.896,0.478-7.499,0.722c-0.05,0.779-0.099,1.775-0.182,2.769
			c-0.198,2.397-0.183,4.842-0.672,7.18c-0.765,3.652-1.509,7.345-3.608,10.578c-2.155,3.318-5.282,5.232-8.974,6.229
			c-2.083,0.562-4.268,0.953-6.418,1.014c-4.837,0.137-8.752-2.338-10.492-7.016c-0.665-1.788-1.151-3.644-1.703-5.474
			c-0.976-3.238-0.832-6.593-1-9.914c-0.047-0.936-0.007-1.875-0.007-2.837c-6.238,1.876-12.053,1.954-17.508-2.215
			c-0.241,0.135-0.669,0.342-1.065,0.598c-3.221,2.083-6.892,2.055-10.062-0.131c-1.636-1.127-3.14-2.413-4.205-4.124
			c-0.857-1.377-1.697-2.767-2.501-4.175c-2.698-4.725-4.349-9.86-5.876-15.045c-1.813-6.15-3.509-12.326-4.385-18.695
			c-0.129-0.94-0.312-1.874-0.47-2.811c0-1.627,0-3.255,0-4.883c0.072-0.258,0.183-0.511,0.211-0.773
			c0.447-4.08,1.178-8.047,3.62-11.524c1.644-2.34,3.478-4.386,5.978-5.879c3.683-2.199,7.667-3.144,11.879-3.305
			c5.781-0.222,11.388,0.784,16.89,2.495c0.365,0.114,0.868,0.194,1.173,0.035C45.22,1.531,50.84,1.067,56.637,1.662
			c1.282,0.131,2.653,0.543,3.841,0.249c5.751-1.428,11.525-1.957,17.407-1.118c5.207,0.743,9.978,2.61,14.143,5.81
			c1.688,1.296,3.043,3.015,4.622,4.462c1.521,1.395,2.237,3.206,2.495,5.119c0.307,2.273,0.465,4.607,0.32,6.892
			c-0.277,4.396-1.085,8.713-2.652,12.868c-1.018,2.699-1.846,5.471-2.889,8.16c-0.868,2.235-1.839,4.439-2.923,6.577
			c-1.177,2.32-2.538,4.546-3.964,7.07c1.992-0.303,3.75-0.521,5.487-0.846c3.358-0.626,6.915,0.272,7.582,4.197
			c0.003,0.016,0.058,0.021,0.089,0.032C100.195,61.523,100.195,61.914,100.195,62.305z M36.06,60.016
			c2.209,0.578,4.089,1.069,5.947,1.556c-1.363,2.134-3.317,3.432-5.908,3.873c-1.394,0.237-2.821,0.574-4.092,1.168
			c-2.12,0.99-2.271,3.173-0.305,4.454c1.083,0.706,2.379,1.196,3.647,1.488c3.963,0.915,7.814,0.672,11.364-1.574
			c0.581-0.367,1.181-0.704,1.859-1.106c0,0.328-0.006,0.548,0.001,0.768c0.15,4.779,0.261,9.561,0.469,14.338
			c0.127,2.926,0.8,5.725,2.503,8.185c1.616,2.335,3.853,3.681,6.647,4.133c2.579,0.417,5.046-0.149,7.491-0.856
			c4.026-1.165,7.055-3.458,8.419-7.585c0.122-0.369,0.269-0.739,0.325-1.12c0.722-4.786,1.438-9.572,2.133-14.362
			c0.227-1.567,0.386-3.146,0.547-4.477c2.493,0,4.863,0.15,7.206-0.034c3.932-0.31,7.57-1.571,10.576-4.219
			c0.82-0.724,1.491-1.707,1.975-2.696c0.472-0.965-0.148-2.093-1.209-2.353c-0.764-0.187-1.619-0.219-2.397-0.094
			c-2.858,0.463-5.705,1.042-8.618,0.639c-0.768-0.106-1.51-0.394-2.42-0.64c1.013-1.488,2.012-2.691,2.722-4.047
			c2.186-4.177,4.345-8.373,6.345-12.641c0.986-2.104,1.679-4.359,2.367-6.588c1.715-5.545,3.028-11.167,2.832-17.034
			c-0.096-2.891-0.932-5.445-3.004-7.599c-1.82-1.893-3.888-3.427-6.11-4.767c-0.992-0.598-2.063-1.082-3.141-1.513
			c-7.792-3.115-15.68-2.799-23.624-0.644c-0.624,0.169-1.344,0.204-1.978,0.083c-6.341-1.209-12.48-0.979-18.233,2.357
			c-0.256,0.148-0.667,0.165-0.964,0.085c-1.941-0.521-3.852-1.169-5.808-1.62c-5.301-1.221-10.647-1.83-16.048-0.678
			c-4.683,0.999-8.588,3.207-11.222,7.361c-1.978,3.119-2.657,6.661-3.173,10.203c-0.401,2.748-0.141,5.519,0.376,8.289
			c1.592,8.541,3.273,17.053,6.623,25.12c1.316,3.169,2.731,6.306,4.277,9.367c1.04,2.06,2.648,3.752,4.492,5.15
			c2.371,1.798,5.12,1.783,7.478-0.025c0.94-0.722,1.813-1.556,2.61-2.435C31.47,65.24,33.853,62.508,36.06,60.016z"/>
		<path fill-rule="evenodd" clip-rule="evenodd" fill="#FEFEFE" d="M36.06,60.016c-2.207,2.492-4.589,5.225-7.024,7.91
			c-0.797,0.879-1.67,1.713-2.61,2.435c-2.358,1.809-5.107,1.823-7.478,0.025c-1.843-1.398-3.452-3.091-4.492-5.15
			c-1.546-3.062-2.961-6.198-4.277-9.367c-3.35-8.067-5.03-16.579-6.623-25.12c-0.517-2.77-0.777-5.542-0.376-8.289
			c0.516-3.542,1.196-7.083,3.173-10.203c2.634-4.154,6.54-6.362,11.222-7.361c5.4-1.151,10.747-0.543,16.048,0.678
			c1.956,0.451,3.867,1.099,5.808,1.62c0.296,0.08,0.708,0.063,0.964-0.085c5.753-3.336,11.892-3.566,18.233-2.357
			c0.634,0.121,1.354,0.086,1.978-0.083c7.944-2.156,15.832-2.471,23.624,0.644c1.077,0.431,2.148,0.915,3.141,1.513
			c2.223,1.34,4.29,2.874,6.11,4.767c2.072,2.153,2.908,4.708,3.004,7.599c0.196,5.867-1.117,11.489-2.832,17.034
			c-0.688,2.229-1.381,4.483-2.367,6.588c-2,4.268-4.159,8.464-6.345,12.641c-0.71,1.355-1.709,2.559-2.722,4.047
			c0.91,0.246,1.652,0.533,2.42,0.64c2.913,0.403,5.76-0.176,8.618-0.639c0.778-0.125,1.634-0.093,2.397,0.094
			c1.061,0.26,1.681,1.388,1.209,2.353c-0.483,0.989-1.154,1.973-1.975,2.696c-3.006,2.647-6.645,3.909-10.576,4.219
			c-2.343,0.185-4.713,0.034-7.206,0.034c-0.161,1.331-0.32,2.909-0.547,4.477c-0.694,4.79-1.411,9.576-2.133,14.362
			c-0.057,0.381-0.203,0.751-0.325,1.12c-1.364,4.127-4.393,6.42-8.419,7.585c-2.445,0.707-4.912,1.273-7.491,0.856
			c-2.795-0.452-5.031-1.798-6.647-4.133c-1.703-2.46-2.376-5.259-2.503-8.185c-0.208-4.777-0.318-9.559-0.469-14.338
			c-0.007-0.22-0.001-0.439-0.001-0.768c-0.678,0.402-1.278,0.739-1.859,1.106c-3.55,2.246-7.401,2.489-11.364,1.574
			c-1.268-0.292-2.564-0.782-3.647-1.488c-1.966-1.281-1.814-3.464,0.305-4.454c1.271-0.594,2.698-0.931,4.092-1.168
			c2.591-0.441,4.545-1.739,5.908-3.873C40.149,61.085,38.269,60.594,36.06,60.016z M92.923,62.449
			c-1.513,0.184-3.021,0.428-4.539,0.536c-2.639,0.19-5.271,0.225-7.64-1.275c-0.142-0.089-0.361-0.114-0.533-0.088
			c-1.936,0.289-2.767,1.259-2.867,3.178c-0.04,0.775,0.234,1.098,0.987,1.227c2.702,0.463,5.388,0.29,8.03-0.29
			c2.444-0.536,4.765-1.433,6.633-3.209c0.073-0.04,0.146-0.079,0.22-0.118C93.117,62.423,93.02,62.437,92.923,62.449z M78.758,59.1
			c-0.926-1.269-1.924-2.42-2.678-3.714c-1.677-2.877-3.264-5.809-4.821-8.753c-0.758-1.433-1.434-2.917-2.033-4.424
			c-1.197-3.003-2.187-6.068-1.848-9.376c0.279-2.721,1.631-4.715,4.209-5.719c0.985-0.384,2.061-0.644,3.112-0.725
			c1.562-0.12,3.141-0.031,4.96-0.031c-0.637-1.179-1.177-2.155-1.694-3.144c-1.729-3.299-3.76-6.357-6.629-8.811
			c-1.88-1.608-3.784-3.126-6.003-4.284c-5.025-2.622-10.338-3.623-15.941-3.079c-4.371,0.424-8.116,2.221-11.026,5.557
			c-2.092,2.397-3.533,5.223-4.487,8.21c-0.851,2.664-1.255,5.47-1.856,8.213c0.105,0.041,0.21,0.082,0.315,0.123
			c0.317-0.147,0.63-0.304,0.951-0.442c2.795-1.198,5.639-2.123,8.753-1.983c3.062,0.138,6.199,2.155,6.949,5.628
			c0.73,3.378,1.237,6.78,1.181,10.249c-0.063,3.911-1.158,7.548-2.839,11.05c-0.845,1.76-1.553,3.584-2.358,5.462
			c4.584,0.197,6.481,2.263,6.429,6.634c-0.082,6.768-0.136,13.532,0.517,20.286c0.245,2.543,1.272,4.651,2.901,6.521
			c1.046,1.2,2.403,1.848,3.995,2.013c2.355,0.245,4.572-0.348,6.793-1.022c2.675-0.813,4.613-2.43,5.472-5.099
			c0.62-1.926,1.183-3.906,1.44-5.905c0.783-6.058,1.456-12.131,2.068-18.209C74.867,61.562,76.081,59.878,78.758,59.1z M37.17,9.35
			c-1.32-0.337-2.75-0.742-4.198-1.065c-5.15-1.149-10.331-1.754-15.547-0.465c-5.27,1.302-8.815,4.517-10.372,9.761
			c-1.232,4.153-1.362,8.406-0.688,12.658c0.822,5.18,1.74,10.346,3.473,15.327c0.511,1.47,0.846,3,1.317,4.485
			c1.551,4.883,3.158,9.748,6.04,14.057c0.738,1.104,1.496,2.222,2.407,3.179c2.132,2.241,4.177,2.163,6.249-0.124
			c1.763-1.947,3.512-3.906,5.268-5.859c0.902-1.004,1.807-2.007,2.707-3.007c-0.132-0.148-0.191-0.226-0.26-0.293
			c-3.625-3.489-4.984-7.72-4.542-12.726c0.325-3.681,0.408-7.401,0.306-11.096c-0.179-6.444,0.671-12.675,3.58-18.462
			C34.029,13.494,35.684,11.539,37.17,9.35z M64.837,6.462c-0.009,0.07-0.017,0.14-0.024,0.21c0.176,0.113,0.339,0.262,0.531,0.333
			c2.727,1.01,4.984,2.796,7.179,4.595c2.978,2.442,5.249,5.546,7.288,8.799c2.423,3.865,3.456,7.992,2.448,12.558
			c-0.787,3.563-0.613,7.152-0.104,10.76c0.592,4.179,0.498,8.31-1.688,12.132c-0.111,0.195,0.034,0.537,0.06,0.811
			c0.094,0,0.188,0,0.282,0c1.433-2.418,3.083-4.736,4.252-7.276c2.161-4.699,4.245-9.455,5.98-14.323
			c1.771-4.967,2.775-10.15,2.694-15.479c-0.036-2.348-0.576-4.513-2.405-6.167c-0.43-0.388-0.84-0.805-1.306-1.144
			c-1.729-1.257-3.36-2.715-5.241-3.683c-4.683-2.409-9.768-3.014-14.971-2.698C68.148,5.992,66.495,6.267,64.837,6.462z
			 M47.412,41.088c-0.108-0.691-0.303-1.99-0.516-3.287c-0.253-1.539-0.469-3.086-0.797-4.608c-0.534-2.481-2.024-3.668-4.547-3.701
			c-3.267-0.042-6.146,1.194-8.888,2.802c-0.289,0.169-0.488,0.714-0.5,1.093c-0.125,3.929-0.032,7.873-0.342,11.786
			c-0.343,4.32,0.506,8.035,3.978,10.91c1.738,1.439,3.684,2.276,5.924,2.479c0.527,0.048,0.704-0.144,0.879-0.631
			c0.781-2.167,1.571-4.335,2.463-6.458C46.381,48.342,47.334,45.142,47.412,41.088z M78.323,53.591
			c0.146-0.161,0.232-0.222,0.27-0.305c0.118-0.266,0.226-0.537,0.323-0.812c0.972-2.748,0.828-5.563,0.477-8.385
			c-0.37-2.971-0.723-5.937-0.289-8.936c0.251-1.735,0.444-3.478,0.677-5.216c0.058-0.433,0.063-0.82-0.516-0.803
			c-1.813,0.055-3.652-0.042-5.431,0.24c-1.804,0.285-3.303,1.23-3.643,3.275c-0.096,0.573-0.144,1.168-0.104,1.747
			c0.177,2.644,0.88,5.127,2.168,7.468c1.001,1.817,1.809,3.739,2.762,5.584C76.068,49.485,77.188,51.487,78.323,53.591z
			 M33.661,68.821c-0.008,0.075-0.016,0.15-0.024,0.226c0.196,0.106,0.381,0.244,0.59,0.315c2.44,0.831,4.938,1.141,7.485,0.668
			c2.668-0.495,4.76-1.984,6.456-4.035c0.835-1.011,0.49-2.663-0.633-3.549c-1.052-0.828-1.897-0.698-2.933,0.463
			c-0.281,0.315-0.587,0.62-0.809,0.976c-1.522,2.438-3.856,3.559-6.56,4.113C36.037,68.244,34.851,68.545,33.661,68.821z"/>
		<path fill-rule="evenodd" clip-rule="evenodd" fill="#336791" d="M78.758,59.1c-2.677,0.778-3.891,2.463-4.169,5.228
			c-0.612,6.078-1.285,12.151-2.068,18.209c-0.258,1.999-0.82,3.979-1.44,5.905c-0.858,2.669-2.797,4.285-5.472,5.099
			c-2.221,0.675-4.438,1.268-6.793,1.022c-1.592-0.165-2.949-0.812-3.995-2.013c-1.629-1.869-2.656-3.978-2.901-6.521
			c-0.652-6.754-0.599-13.519-0.517-20.286c0.053-4.371-1.845-6.437-6.429-6.634c0.805-1.878,1.513-3.702,2.358-5.462
			c1.682-3.502,2.776-7.14,2.839-11.05c0.056-3.468-0.451-6.87-1.181-10.249c-0.75-3.473-3.887-5.49-6.949-5.628
			c-3.114-0.14-5.958,0.785-8.753,1.983c-0.321,0.138-0.634,0.294-0.951,0.442c-0.105-0.041-0.21-0.082-0.315-0.123
			c0.601-2.743,1.005-5.55,1.856-8.213c0.955-2.988,2.396-5.813,4.487-8.21c2.911-3.336,6.655-5.133,11.026-5.557
			c5.604-0.544,10.916,0.457,15.941,3.079c2.219,1.158,4.123,2.676,6.003,4.284c2.869,2.454,4.9,5.511,6.629,8.811
			c0.518,0.988,1.058,1.964,1.694,3.144c-1.819,0-3.397-0.089-4.96,0.031c-1.052,0.081-2.127,0.341-3.112,0.725
			c-2.578,1.003-3.93,2.998-4.209,5.719c-0.339,3.308,0.65,6.373,1.848,9.376c0.6,1.506,1.275,2.991,2.033,4.424
			c1.558,2.944,3.145,5.876,4.821,8.753C76.834,56.68,77.832,57.831,78.758,59.1z"/>
		<path fill-rule="evenodd" clip-rule="evenodd" fill="#336791" d="M37.17,9.35c-1.486,2.189-3.141,4.144-4.259,6.368
			c-2.909,5.787-3.758,12.018-3.58,18.462c0.102,3.695,0.019,7.416-0.306,11.096c-0.442,5.005,0.917,9.236,4.542,12.726
			c0.069,0.067,0.128,0.145,0.26,0.293c-0.9,1-1.805,2.003-2.707,3.007c-1.756,1.953-3.505,3.912-5.268,5.859
			c-2.072,2.287-4.117,2.365-6.249,0.124c-0.911-0.957-1.668-2.075-2.407-3.179c-2.882-4.309-4.489-9.174-6.04-14.057
			c-0.472-1.485-0.806-3.015-1.317-4.485c-1.733-4.981-2.651-10.146-3.473-15.327c-0.674-4.251-0.545-8.504,0.688-12.658
			c1.557-5.244,5.102-8.458,10.372-9.761c5.216-1.289,10.397-0.684,15.547,0.465C34.42,8.608,35.85,9.013,37.17,9.35z"/>
		<path fill-rule="evenodd" clip-rule="evenodd" fill="#336791" d="M64.837,6.462c1.658-0.195,3.312-0.47,4.976-0.571
			c5.203-0.316,10.288,0.289,14.971,2.698c1.881,0.968,3.513,2.426,5.241,3.683c0.466,0.339,0.876,0.755,1.306,1.144
			c1.829,1.654,2.369,3.819,2.405,6.167c0.081,5.328-0.924,10.512-2.694,15.479c-1.735,4.868-3.819,9.624-5.98,14.323
			c-1.169,2.54-2.819,4.858-4.252,7.276c-0.094,0-0.188,0-0.282,0c-0.025-0.273-0.171-0.615-0.06-0.811
			c2.187-3.822,2.28-7.953,1.688-12.132c-0.51-3.607-0.684-7.196,0.104-10.76c1.008-4.566-0.025-8.693-2.448-12.558
			c-2.039-3.253-4.311-6.357-7.288-8.799c-2.194-1.799-4.452-3.585-7.179-4.595c-0.192-0.071-0.355-0.22-0.531-0.333
			C64.82,6.603,64.828,6.533,64.837,6.462z"/>
		<path fill-rule="evenodd" clip-rule="evenodd" fill="#336791" d="M47.412,41.088c-0.078,4.053-1.03,7.254-2.346,10.385
			c-0.892,2.123-1.682,4.291-2.463,6.458c-0.175,0.487-0.353,0.679-0.879,0.631c-2.241-0.202-4.186-1.039-5.924-2.479
			c-3.472-2.875-4.321-6.59-3.978-10.91c0.31-3.913,0.217-7.857,0.342-11.786c0.012-0.378,0.212-0.924,0.5-1.093
			c2.742-1.608,5.621-2.845,8.888-2.802c2.522,0.033,4.013,1.22,4.547,3.701c0.328,1.522,0.543,3.07,0.797,4.608
			C47.109,39.098,47.304,40.397,47.412,41.088z M41.903,30.931c-0.753,0.149-1.282,0.186-1.755,0.366
			c-0.539,0.206-0.799,0.623-0.559,1.248c0.422,1.096,1.342,1.563,2.373,1.795c0.991,0.224,1.86-0.157,2.531-0.911
			c0.574-0.645,0.528-1.31-0.236-1.691C43.465,31.343,42.573,31.152,41.903,30.931z"/>
		<path fill-rule="evenodd" clip-rule="evenodd" fill="#336791" d="M78.323,53.591c-1.136-2.104-2.255-4.106-3.307-6.144
			c-0.953-1.845-1.761-3.767-2.762-5.584c-1.288-2.341-1.991-4.825-2.168-7.468c-0.039-0.578,0.009-1.174,0.104-1.747
			c0.34-2.045,1.839-2.99,3.643-3.275c1.778-0.281,3.617-0.185,5.431-0.24c0.579-0.017,0.573,0.37,0.516,0.803
			c-0.232,1.738-0.426,3.481-0.677,5.216c-0.434,2.999-0.081,5.965,0.289,8.936c0.352,2.822,0.495,5.637-0.477,8.385
			c-0.098,0.275-0.205,0.547-0.323,0.812C78.556,53.369,78.469,53.43,78.323,53.591z M75.057,30.26
			c-0.582,0.171-1.355,0.31-2.049,0.626c-0.841,0.384-0.882,0.946-0.237,1.596c1.144,1.154,2.965,0.928,3.942-0.492
			c0.545-0.791,0.342-1.321-0.604-1.553C75.827,30.37,75.536,30.34,75.057,30.26z"/>
		<path fill-rule="evenodd" clip-rule="evenodd" fill="#336791" d="M33.661,68.821c1.19-0.276,2.376-0.577,3.573-0.823
			c2.704-0.555,5.037-1.675,6.56-4.113c0.222-0.355,0.527-0.66,0.809-0.976c1.035-1.161,1.881-1.291,2.933-0.463
			c1.124,0.886,1.469,2.538,0.633,3.549c-1.696,2.051-3.788,3.54-6.456,4.035c-2.548,0.473-5.045,0.163-7.485-0.668
			c-0.208-0.071-0.394-0.209-0.59-0.315C33.645,68.972,33.652,68.896,33.661,68.821z"/>
		<path fill-rule="evenodd" clip-rule="evenodd" fill="#336791" d="M92.994,62.527c-1.868,1.776-4.188,2.673-6.633,3.209
			c-2.643,0.58-5.328,0.753-8.03,0.29c-0.753-0.129-1.027-0.451-0.987-1.227c0.101-1.919,0.932-2.889,2.867-3.178
			c0.172-0.026,0.392-0.001,0.533,0.088c2.369,1.5,5.001,1.466,7.64,1.275c1.518-0.108,3.026-0.353,4.539-0.536
			C92.946,62.476,92.971,62.501,92.994,62.527z"/>
		<path fill-rule="evenodd" clip-rule="evenodd" fill="#336791" d="M92.923,62.449c0.097-0.013,0.194-0.026,0.291-0.04
			c-0.073,0.039-0.146,0.078-0.22,0.118C92.971,62.501,92.946,62.476,92.923,62.449z"/>
		<path fill-rule="evenodd" clip-rule="evenodd" fill="#FEFEFE" d="M41.903,30.931c0.67,0.221,1.562,0.412,2.354,0.807
			c0.765,0.382,0.811,1.046,0.236,1.691c-0.671,0.754-1.54,1.135-2.531,0.911c-1.03-0.232-1.95-0.7-2.373-1.795
			c-0.241-0.625,0.02-1.042,0.559-1.248C40.621,31.116,41.149,31.08,41.903,30.931z"/>
		<path fill-rule="evenodd" clip-rule="evenodd" fill="#FEFEFE" d="M75.057,30.26c0.479,0.08,0.771,0.109,1.052,0.178
			c0.946,0.231,1.149,0.762,0.604,1.553c-0.978,1.419-2.799,1.646-3.942,0.492c-0.645-0.65-0.604-1.212,0.237-1.596
			C73.701,30.57,74.475,30.431,75.057,30.26z"/>
	</g>
</g>
</svg>
