<?xml version="1.0" encoding="utf-8"?>
<!-- Generator: Adobe Illustrator 16.0.0, SVG Export Plug-In . SVG Version: 6.00 Build 0)  -->
<!DOCTYPE svg PUBLIC "-//W3C//DTD SVG 1.1//EN" "http://www.w3.org/Graphics/SVG/1.1/DTD/svg11.dtd">
<svg version="1.1" id="Layer_1" xmlns="http://www.w3.org/2000/svg" xmlns:xlink="http://www.w3.org/1999/xlink" x="0px" y="0px"
	 width="100px" height="100px" viewBox="0 0 100 100" enable-background="new 0 0 100 100" xml:space="preserve">
<rect fill-rule="evenodd" clip-rule="evenodd" fill="#CC6899" width="100" height="100"/>
<path fill-rule="evenodd" clip-rule="evenodd" fill="#FFFFFF" d="M25.731,23.644c0.016,0.002,0.031,0,0.047-0.008
	c0.032-0.002,0.07,0.005,0.097-0.009c0.289-0.155,0.578-0.31,0.863-0.472c0.06-0.034,0.103-0.099,0.154-0.149
	c0.188-0.079,0.381-0.146,0.56-0.239c0.435-0.223,0.86-0.464,1.295-0.687c0.299-0.153,0.608-0.288,0.912-0.431
	c0.049-0.003,0.104,0.007,0.146-0.012c0.288-0.13,0.573-0.265,0.857-0.402c0.021-0.011,0.027-0.055,0.039-0.083l0.003-0.001
	c0.279,0.003,0.504-0.163,0.754-0.25c0.306-0.106,0.596-0.261,0.891-0.398c0.041-0.019,0.071-0.059,0.105-0.09
	c0.079-0.019,0.162-0.03,0.238-0.059c0.199-0.078,0.392-0.168,0.591-0.244c0.379-0.146,0.763-0.281,1.142-0.429
	c0.512-0.199,1.017-0.417,1.533-0.607c0.435-0.158,0.88-0.286,1.32-0.431c0.022-0.007,0.034-0.051,0.05-0.077
	c0.033-0.005,0.065-0.01,0.097-0.015c0.033,0.002,0.069,0.014,0.098,0.005c0.217-0.063,0.432-0.132,0.648-0.195
	c0.284-0.082,0.569-0.157,0.852-0.242c0.055-0.017,0.103-0.065,0.152-0.098c0.031-0.003,0.063-0.006,0.094-0.009
	c0.165,0.037,0.302-0.054,0.453-0.088c0.454-0.102,0.911-0.196,1.367-0.29c0.209-0.043,0.417-0.091,0.629-0.108
	c0.143-0.013,0.273-0.04,0.393-0.115c0.065-0.005,0.129-0.009,0.194-0.014c0.106-0.002,0.235,0.082,0.304-0.074
	c0.165-0.003,0.33-0.007,0.496-0.01c0.067-0.001,0.135,0,0.152-0.089c0.312-0.021,0.622-0.04,0.935-0.062
	c0.164-0.013,0.327-0.035,0.49-0.048c0.222-0.019,0.444-0.031,0.664-0.054c0.042-0.004,0.079-0.047,0.12-0.073
	c0.027,0,0.056,0,0.083-0.001c0.048,0.002,0.094,0.004,0.142,0.006c0.08,0.008,0.161,0.026,0.242,0.023
	c0.356-0.012,0.712-0.044,1.066-0.042c0.728,0.006,1.456,0.03,2.185,0.048c0.034,0,0.065,0.004,0.1,0.007
	c0.335,0.029,0.674,0.056,1.011,0.088c0.353,0.034,0.705,0.073,1.057,0.111c0.016,0.001,0.031,0.007,0.049,0.011
	c0.127,0.026,0.254,0.054,0.382,0.078c0.112,0.021,0.226,0.04,0.34,0.057c0.081,0.013,0.161,0.021,0.243,0.031
	c0.064,0.035,0.125,0.086,0.191,0.101c0.209,0.045,0.42,0.07,0.628,0.114c0.2,0.042,0.396,0.1,0.595,0.149
	c0.342,0.084,0.686,0.167,1.028,0.251c0.013,0.004,0.028,0.006,0.042,0.005c0.032,0.107,0.129,0.108,0.214,0.141
	c0.386,0.149,0.769,0.309,1.154,0.457c0.142,0.054,0.261,0.181,0.433,0.142c0.014,0.005,0.028,0.007,0.043,0.006
	c0.09,0.117,0.203,0.19,0.356,0.19c0.331,0.199,0.665,0.395,0.994,0.598c0.236,0.145,0.466,0.299,0.698,0.449
	c0.18,0.136,0.358,0.272,0.537,0.408c0.023,0.033,0.043,0.069,0.07,0.097c0.363,0.381,0.729,0.761,1.092,1.142
	c0.112,0.118,0.219,0.24,0.329,0.36c0.011,0.138,0.064,0.246,0.203,0.297c0.015,0.055,0.015,0.12,0.044,0.163
	c0.192,0.273,0.342,0.569,0.486,0.869c0.063,0.133,0.127,0.268,0.19,0.401c0.007,0.032,0.014,0.064,0.021,0.097
	c-0.029,0.103,0.013,0.171,0.104,0.214c0.005,0.03,0.011,0.061,0.015,0.09c-0.059,0.117-0.022,0.198,0.093,0.249
	c0.001,0.016,0.003,0.033,0.004,0.049c-0.043,0.254,0.105,0.476,0.127,0.72c0,0.014,0.039,0.025,0.061,0.037
	c0.002,0.03,0.003,0.06,0.004,0.09c-0.036,0.259,0.005,0.507,0.109,0.745c0.004,0.033,0.005,0.065,0.006,0.097
	c-0.001,0.832-0.004,1.665-0.006,2.496c-0.002,0.033-0.004,0.065-0.007,0.098c-0.101,0.022-0.081,0.105-0.094,0.177
	c-0.049,0.333-0.079,0.67-0.157,0.997c-0.107,0.46-0.252,0.912-0.376,1.368c-0.041,0.148-0.072,0.3-0.106,0.45
	c-0.005,0.032-0.009,0.065-0.013,0.097c-0.122,0.025-0.094,0.118-0.092,0.199c-0.097,0.213-0.195,0.426-0.295,0.638
	c-0.236,0.497-0.469,0.996-0.712,1.489c-0.137,0.277-0.295,0.543-0.442,0.814c-0.208,0.167-0.33,0.389-0.408,0.638
	c-0.072,0.062-0.155,0.116-0.213,0.19c-0.12,0.16-0.229,0.328-0.337,0.497c-0.041,0.065-0.06,0.143-0.09,0.215
	c-0.249,0.151-0.371,0.401-0.502,0.644c-0.058,0.043-0.124,0.079-0.172,0.131c-0.396,0.435-0.789,0.873-1.184,1.311
	c-0.18,0.2-0.357,0.401-0.534,0.603c-0.093,0.007-0.134,0.064-0.149,0.149c-0.236,0.106-0.395,0.299-0.552,0.494
	c-0.032,0.034-0.065,0.067-0.099,0.101c-0.164,0.044-0.283,0.139-0.347,0.3c-0.061,0.024-0.128,0.036-0.177,0.073
	c-0.197,0.147-0.391,0.3-0.583,0.457c-0.026,0.022-0.028,0.074-0.043,0.112c-0.101,0.053-0.206,0.098-0.3,0.161
	c-0.352,0.236-0.697,0.48-1.049,0.718c-0.092,0.062-0.218,0.083-0.243,0.221c-0.015,0.002-0.025,0.007-0.038,0.013
	c-0.235,0.03-0.396,0.182-0.554,0.339c-0.161-0.018-0.244,0.124-0.364,0.185c-0.381,0.192-0.76,0.392-1.146,0.575
	c-0.303,0.145-0.616,0.269-0.924,0.407c-0.026,0.011-0.039,0.049-0.058,0.075c-0.124,0.036-0.25,0.069-0.372,0.108
	c-0.407,0.131-0.797,0.31-1.213,0.422c-0.423,0.115-0.833,0.275-1.249,0.418c-0.056,0.021-0.104,0.062-0.158,0.094
	c-0.145,0.029-0.292,0.051-0.434,0.088c-0.253,0.068-0.502,0.151-0.755,0.219c-0.221,0.06-0.444,0.111-0.667,0.163
	c-0.206,0.047-0.41,0.098-0.617,0.138c-0.243,0.046-0.488,0.077-0.729,0.123c-0.281,0.053-0.557,0.133-0.839,0.174
	c-0.35,0.051-0.706,0.063-1.057,0.118c-0.146,0.023-0.32-0.022-0.439,0.116c-0.026,0-0.053,0-0.081,0
	c-0.047-0.01-0.095-0.03-0.141-0.027c-0.302,0.016-0.604,0.033-0.905,0.058c-0.039,0.003-0.075,0.05-0.113,0.077
	c-0.029,0.001-0.058,0.002-0.087,0.003c-0.088-0.01-0.176-0.03-0.263-0.031c-0.688-0.002-1.376-0.002-2.066,0.001
	c-0.087,0-0.175,0.019-0.262,0.03c-0.127-0.002-0.254-0.004-0.382-0.006c-0.022-0.022-0.043-0.064-0.066-0.065
	c-0.232-0.018-0.464-0.028-0.697-0.042c-0.065,0.002-0.13,0.006-0.195,0.009c-0.029-0.002-0.059-0.003-0.088-0.005
	c-0.022-0.022-0.042-0.059-0.068-0.064c-0.352-0.058-0.704-0.112-1.057-0.162c-0.044-0.007-0.092,0.018-0.139,0.028
	c-0.025,0-0.05,0.001-0.077,0.001c-0.042-0.042-0.076-0.108-0.126-0.125c-0.208-0.065-0.419-0.117-0.63-0.172
	c-0.186-0.048-0.372-0.093-0.558-0.14c-0.013-0.004-0.027-0.006-0.041-0.005c-0.02-0.091-0.084-0.097-0.159-0.087
	c-0.017-0.002-0.033-0.006-0.049-0.009c-0.015-0.091-0.077-0.099-0.151-0.086c-0.032-0.004-0.065-0.008-0.098-0.013
	c-0.086-0.161-0.234-0.195-0.398-0.201l0,0c-0.053-0.047-0.1-0.104-0.159-0.139c-0.171-0.102-0.353-0.183-0.518-0.292
	c-0.244-0.163-0.518-0.277-0.726-0.494c-0.06-0.061-0.158-0.083-0.238-0.124c-0.027-0.039-0.05-0.083-0.084-0.115
	c-0.242-0.235-0.496-0.458-0.727-0.704c-0.218-0.231-0.427-0.473-0.61-0.733c-0.268-0.38-0.42-0.818-0.559-1.257
	c-0.09-0.291,0.019-0.544,0.258-0.683c0.089-0.051,0.173-0.061,0.252,0.006c0.132,0.112,0.26,0.229,0.39,0.342
	c0.141,0.123,0.282,0.244,0.422,0.367c0.029,0.105,0.092,0.174,0.201,0.199c0.083,0.14,0.196,0.242,0.357,0.284
	c0.312,0.265,0.649,0.486,1.039,0.617c0.044,0.043,0.083,0.103,0.135,0.125c0.295,0.129,0.591,0.263,0.895,0.37
	c0.198,0.069,0.409,0.095,0.614,0.142c0.067,0.135,0.184,0.117,0.302,0.098c0.033,0,0.065,0,0.099,0.001
	c0.031,0.002,0.061,0.003,0.092,0.005c0.044,0.03,0.084,0.077,0.132,0.086c0.436,0.083,0.871,0.168,1.31,0.229
	c0.184,0.026,0.375-0.003,0.563-0.007c0.03-0.002,0.06-0.003,0.091-0.005c0.095,0.002,0.19,0.004,0.285,0.006
	c0.078,0.105,0.157,0.106,0.236,0.001c0.087,0.001,0.174,0.001,0.261,0.002c0.129,0.11,0.257,0.112,0.384-0.004l0.018,0.001
	l0.017-0.006c0.1,0,0.199,0,0.299,0.001c0.081,0.001,0.162,0.001,0.242,0.003c0.18,0.001,0.36,0.021,0.538,0.002
	c0.235-0.024,0.469-0.082,0.704-0.115c0.358-0.051,0.718-0.088,1.076-0.142c0.299-0.045,0.596-0.108,0.895-0.161
	c0.225-0.041,0.452-0.074,0.676-0.118c0.112-0.022,0.221-0.056,0.328-0.093c0.03-0.011,0.045-0.058,0.069-0.089
	c0.031-0.004,0.062-0.008,0.094-0.013c0.242,0.056,0.444-0.113,0.675-0.123c0.009,0,0.018-0.042,0.027-0.064
	c0.033-0.002,0.065-0.004,0.099-0.007c0.225,0.044,0.403-0.104,0.605-0.154c0.124-0.031,0.289-0.017,0.36-0.172
	c0.027-0.003,0.055-0.005,0.083-0.007c0.116,0.047,0.198,0.004,0.259-0.097l0.021,0.001l0.021-0.005
	c0.095-0.018,0.196-0.024,0.288-0.056c0.216-0.074,0.429-0.158,0.643-0.243c0.508-0.2,1.019-0.394,1.521-0.608
	c0.402-0.172,0.799-0.356,1.185-0.563c0.533-0.286,1.057-0.587,1.573-0.903c0.145-0.089,0.35-0.118,0.418-0.316v0
	c0.173-0.005,0.294-0.08,0.339-0.255c0.009-0.007,0.014-0.016,0.016-0.028c0.049-0.018,0.098-0.036,0.148-0.054
	c0.41-0.227,0.787-0.5,1.137-0.815c0.158,0.013,0.214-0.135,0.316-0.208c0.473-0.337,0.904-0.725,1.318-1.131
	c0.027-0.026,0.038-0.068,0.057-0.104c0.033-0.032,0.066-0.065,0.102-0.098c0.032-0.033,0.065-0.066,0.1-0.098
	c0.033-0.033,0.066-0.066,0.1-0.099c0.035-0.033,0.068-0.067,0.1-0.1c0.033-0.033,0.066-0.067,0.1-0.1
	c0.176-0.031,0.233-0.2,0.342-0.304c0.26-0.256,0.548-0.496,0.706-0.84c0.045-0.033,0.099-0.058,0.132-0.099
	c0.26-0.325,0.521-0.652,0.775-0.982c0.029-0.041,0.025-0.109,0.037-0.165c0.158-0.11,0.365-0.432,0.408-0.638
	c0.068-0.069,0.154-0.127,0.199-0.208c0.181-0.331,0.365-0.661,0.52-1.005c0.207-0.458,0.395-0.925,0.572-1.395
	c0.07-0.188,0.096-0.392,0.141-0.589c0.027-0.068,0.068-0.133,0.083-0.204c0.094-0.445,0.146-0.897,0.155-1.351
	c0.008-0.346-0.031-0.693-0.033-1.04c-0.002-0.505-0.18-0.967-0.346-1.429c-0.16-0.445-0.436-0.825-0.768-1.156
	c-0.131-0.129-0.229-0.308-0.432-0.351c-0.095-0.146-0.191-0.291-0.391-0.304c-0.036-0.03-0.072-0.06-0.109-0.09
	c-0.016-0.114-0.111-0.095-0.187-0.111c-0.052-0.032-0.102-0.065-0.152-0.098c-0.033-0.103-0.123-0.086-0.2-0.1
	c-0.084-0.149-0.247-0.185-0.385-0.243c-0.17-0.07-0.315-0.214-0.521-0.188c-0.016-0.007-0.031-0.009-0.047-0.008
	c-0.033-0.031-0.059-0.078-0.098-0.092c-0.273-0.099-0.545-0.211-0.826-0.279c-0.314-0.076-0.613-0.216-0.941-0.231
	c-0.039-0.002-0.077-0.025-0.117-0.033c-0.273-0.052-0.546-0.11-0.821-0.152c-0.126-0.019-0.255-0.005-0.384-0.006
	c-0.031-0.002-0.062-0.002-0.095-0.004c-0.036-0.029-0.069-0.08-0.106-0.084c-0.616-0.054-1.233-0.128-1.85-0.145
	c-0.651-0.016-1.304,0.023-1.958,0.044c-0.064,0.002-0.128,0.051-0.191,0.077c-0.077,0-0.153,0.001-0.229,0.001
	c-0.327-0.086-0.647-0.011-0.967,0.042c-0.016,0.002-0.026,0.039-0.039,0.06c-0.048,0.002-0.094,0.004-0.142,0.006
	c-0.03-0.013-0.06-0.04-0.087-0.037c-0.222,0.021-0.444,0.042-0.665,0.075c-0.317,0.048-0.633,0.109-0.949,0.161
	c-0.268,0.043-0.538,0.079-0.804,0.123c-0.178,0.031-0.354,0.071-0.53,0.11c-0.246,0.056-0.491,0.118-0.737,0.173
	c-0.183,0.041-0.371,0.068-0.553,0.115c-0.22,0.057-0.434,0.131-0.652,0.191c-0.287,0.079-0.577,0.142-0.86,0.229
	c-0.417,0.128-0.829,0.273-1.245,0.409c-0.225,0.074-0.455,0.133-0.677,0.216c-0.303,0.115-0.599,0.251-0.901,0.369
	c-0.398,0.156-0.8,0.302-1.2,0.457c-0.041,0.016-0.07,0.06-0.105,0.091c-0.073,0.01-0.152,0.005-0.218,0.034
	c-0.541,0.228-1.083,0.454-1.617,0.696c-0.456,0.206-0.908,0.419-1.348,0.656c-0.136,0.073-0.317,0.098-0.397,0.262
	c-0.079,0.01-0.173-0.013-0.197,0.102c-0.062,0.015-0.13,0.02-0.186,0.046c-0.232,0.115-0.464,0.23-0.689,0.356
	c-0.118,0.066-0.223,0.155-0.333,0.233c-0.058,0.009-0.123,0.003-0.17,0.028c-0.218,0.111-0.435,0.225-0.644,0.351
	c-0.1,0.061-0.183,0.151-0.273,0.228c-0.016,0-0.03,0.003-0.044,0.009c-0.074-0.007-0.14-0.002-0.148,0.094
	c-0.017,0.003-0.033,0.007-0.049,0.01c-0.032,0.001-0.07-0.008-0.096,0.006c-0.184,0.101-0.367,0.202-0.546,0.31
	c-0.044,0.027-0.073,0.079-0.11,0.119c-0.146,0.014-0.26,0.083-0.35,0.198c-0.048,0.008-0.105,0.001-0.145,0.024
	c-0.474,0.289-0.946,0.581-1.416,0.877c-0.042,0.026-0.061,0.089-0.09,0.135c-0.122,0.011-0.235,0.032-0.342,0.11
	c-0.196,0.144-0.41,0.263-0.611,0.4c-0.041,0.027-0.058,0.088-0.087,0.134c-0.069,0.049-0.182,0.042-0.196,0.16
	c-0.032,0.008-0.064,0.016-0.095,0.024c-0.1-0.017-0.098,0.063-0.116,0.124c-0.029,0.02-0.057,0.039-0.085,0.059
	c-0.034,0.016-0.067,0.033-0.101,0.049c-0.037,0.015-0.078,0.024-0.109,0.047c-0.268,0.188-0.545,0.365-0.796,0.574
	c-0.147,0.122-0.34,0.195-0.439,0.375c-0.034,0.016-0.067,0.031-0.101,0.047c-0.037,0.032-0.074,0.063-0.111,0.096
	c-0.028,0.021-0.057,0.042-0.084,0.063c-0.129,0.032-0.244,0.082-0.269,0.233c-0.012-0.003-0.023,0-0.033,0.007
	c-0.039,0.031-0.077,0.062-0.115,0.094c-0.013-0.003-0.023,0-0.033,0.008c-0.225,0.059-0.382,0.202-0.499,0.396l0,0
	c-0.045,0.017-0.098,0.022-0.134,0.05c-0.129,0.099-0.257,0.2-0.376,0.31c-0.49,0.448-0.978,0.898-1.462,1.352
	c-0.113,0.105-0.214,0.223-0.318,0.337c-0.416,0.454-0.831,0.907-1.242,1.365c-0.051,0.058-0.075,0.141-0.111,0.213
	c-0.032,0.035-0.063,0.07-0.095,0.104c-0.031,0.024-0.069,0.042-0.094,0.072c-0.429,0.521-0.778,1.097-1.131,1.67
	c-0.228,0.369-0.435,0.749-0.589,1.156c-0.151,0.397-0.312,0.79-0.455,1.188c-0.083,0.23-0.154,0.468-0.204,0.707
	c-0.078,0.372-0.137,0.748-0.198,1.123c-0.025,0.155-0.048,0.312-0.048,0.469c0,0.595-0.026,1.188,0.114,1.779
	c0.1,0.423,0.159,0.854,0.312,1.267c0.226,0.608,0.499,1.191,0.852,1.737c0.056,0.087,0.131,0.163,0.196,0.244
	c0.072,0.125,0.129,0.262,0.218,0.373c0.154,0.194,0.245,0.444,0.479,0.571c0.005,0.102,0.042,0.18,0.154,0.198
	c0.032,0.035,0.063,0.069,0.095,0.104c0.04,0.071,0.066,0.155,0.122,0.211c0.6,0.598,1.203,1.193,1.811,1.783
	c0.085,0.084,0.203,0.134,0.305,0.199c0.097,0.123,0.178,0.263,0.348,0.3c0.254,0.234,0.506,0.469,0.763,0.697
	c0.033,0.03,0.091,0.031,0.138,0.045c0.172,0.222,0.376,0.4,0.641,0.503c0.036,0.031,0.072,0.062,0.108,0.092
	c0.016,0.027,0.024,0.064,0.048,0.084c0.274,0.219,0.549,0.438,0.827,0.654c0.497,0.387,0.994,0.773,1.494,1.157
	c0.061,0.047,0.142,0.069,0.213,0.104c0.035,0.031,0.07,0.063,0.104,0.094c0.05,0.109,0.127,0.183,0.25,0.197
	c0.025,0.041,0.043,0.092,0.077,0.121c0.29,0.239,0.582,0.478,0.877,0.711c0.068,0.054,0.155,0.083,0.233,0.122
	c0.034,0.032,0.069,0.063,0.104,0.096c0.095,0.125,0.18,0.26,0.347,0.301c0.057,0.07,0.105,0.15,0.173,0.208
	c0.562,0.474,1.093,0.98,1.587,1.524c0.175,0.194,0.259,0.211,0.493,0.067c0.595-0.364,1.233-0.648,1.819-1.03
	c0.266-0.173,0.567-0.29,0.848-0.44c0.17-0.093,0.358-0.16,0.475-0.332c0.029-0.006,0.059-0.011,0.088-0.017
	c0.121-0.028,0.251-0.043,0.3-0.189c0.245-0.107,0.481-0.23,0.712-0.369c0.384-0.231,0.79-0.427,1.184-0.64
	c0.445-0.24,0.887-0.481,1.329-0.727c0.045-0.024,0.079-0.067,0.119-0.103c0.015-0.001,0.029-0.007,0.042-0.016
	c0.096,0.01,0.144-0.045,0.173-0.125c0.049-0.008,0.103-0.002,0.145-0.023c0.232-0.12,0.467-0.236,0.687-0.377
	c0.117-0.073,0.267-0.137,0.287-0.311c0.134-0.184,0.269-0.368,0.402-0.554c0.034-0.03,0.066-0.061,0.1-0.09
	c0.016-0.031,0.033-0.062,0.049-0.092c0.042-0.023,0.092-0.037,0.124-0.07c0.159-0.163,0.315-0.328,0.469-0.497
	c0.141-0.155,0.276-0.315,0.412-0.475c0.035-0.032,0.07-0.065,0.105-0.1c0.034-0.033,0.068-0.066,0.102-0.101
	c0.041-0.024,0.087-0.045,0.122-0.076c0.197-0.174,0.393-0.352,0.588-0.527c0.076-0.067,0.153-0.135,0.229-0.2
	c0.038-0.011,0.085-0.012,0.114-0.034c0.177-0.139,0.35-0.282,0.524-0.423c0.121-0.032,0.247-0.059,0.301-0.194v-0.001
	c0.035-0.032,0.068-0.063,0.104-0.096h-0.001c0.08-0.008,0.175,0.014,0.194-0.104V49.98c0.144-0.017,0.271-0.062,0.336-0.205
	l0.009-0.004c0.041-0.004,0.087,0.004,0.121-0.013c0.37-0.175,0.736-0.356,1.107-0.53c0.443-0.208,0.924-0.302,1.398-0.379
	c0.377-0.062,0.77-0.028,1.156,0.076c0.761,0.203,1.27,0.686,1.582,1.379c0.226,0.5,0.331,1.034,0.324,1.586
	c-0.004,0.332,0.007,0.664-0.006,0.995c-0.008,0.222-0.051,0.44-0.075,0.663c-0.021,0.211-0.045,0.422,0.004,0.667
	c0.132-0.098,0.233-0.195,0.354-0.26c0.169-0.092,0.346-0.204,0.53-0.232c0.427-0.064,0.836,0.028,1.214,0.241
	c0.049,0.027,0.108,0.033,0.163,0.049c0.067,0.035,0.132,0.07,0.196,0.105v-0.001c0.008,0.131,0.094,0.197,0.202,0.247
	c0.004,0.016,0.008,0.031,0.011,0.047c0.121,0.253,0.115,0.523,0.089,0.79c-0.018,0.192-0.063,0.385-0.114,0.573
	c-0.115,0.432-0.243,0.861-0.36,1.293c-0.06,0.223-0.149,0.438-0.134,0.674c-0.033,0.033-0.086,0.061-0.098,0.101
	c-0.05,0.164-0.089,0.332-0.13,0.499c-0.08,0.317-0.159,0.634-0.237,0.952c-0.056,0.229-0.111,0.458-0.167,0.686
	c-0.011,0.05-0.018,0.099-0.03,0.145c-0.054,0.194-0.116,0.386-0.165,0.581c-0.051,0.199-0.089,0.4-0.136,0.6
	c-0.051,0.222-0.117,0.442-0.164,0.667c-0.019,0.083-0.007,0.173-0.01,0.261c-0.001,0.028-0.003,0.059-0.004,0.087
	c-0.028,0.036-0.073,0.069-0.082,0.109c-0.063,0.281-0.119,0.563-0.176,0.846c-0.092,0.461-0.199,0.921-0.181,1.396
	c0.003,0.058-0.011,0.116-0.011,0.173c0.008,0.354,0.019,0.708,0.028,1.062c0,0.017,0.008,0.032,0.015,0.049
	c0.046,0.116,0.141,0.149,0.229,0.058c0.101-0.106,0.197-0.223,0.268-0.351c0.199-0.356,0.384-0.721,0.571-1.083
	c0.216-0.413,0.432-0.825,0.641-1.242c0.064-0.128,0.1-0.271,0.149-0.407l0.002-0.001c0.105-0.098,0.271-0.432,0.297-0.596
	c0.002-0.031,0.006-0.063,0.008-0.095v0.002c0.035-0.032,0.082-0.056,0.101-0.095c0.214-0.452,0.426-0.906,0.634-1.362
	c0.177-0.392,0.35-0.786,0.52-1.183c0.041-0.096,0.059-0.201,0.086-0.303c0.028-0.026,0.068-0.047,0.084-0.081
	c0.119-0.252,0.231-0.507,0.348-0.76c0.164-0.355,0.337-0.708,0.494-1.066c0.22-0.494,0.428-0.994,0.643-1.491
	c0.139-0.322,0.283-0.642,0.423-0.964c0.038-0.087,0.066-0.179,0.1-0.27c0.026-0.018,0.065-0.03,0.077-0.054
	c0.183-0.41,0.364-0.821,0.544-1.231c0.203-0.461,0.408-0.921,0.607-1.383c0.268-0.618,0.534-1.237,0.794-1.857
	c0.033-0.08,0.035-0.174,0.052-0.261l0.011-0.005c0.137-0.013,0.092-0.113,0.094-0.191c0.002-0.018,0.006-0.034,0.008-0.051
	c0.032-0.031,0.077-0.056,0.094-0.094c0.064-0.139,0.127-0.277,0.172-0.422c0.096-0.302,0.249-0.588,0.243-0.917
	c0.128-0.074,0.112-0.19,0.096-0.308c0.003-0.031,0.006-0.063,0.011-0.094c0.121-0.075,0.105-0.189,0.089-0.306
	c0.001-0.028,0.001-0.058,0.003-0.086c0.145-0.09,0.074-0.237,0.094-0.36c0.002-0.015,0.004-0.029,0.002-0.045
	c0.117-0.074,0.16-0.171,0.102-0.304c0.003-0.028,0.004-0.055,0.008-0.083c0.041-0.047,0.086-0.093,0.126-0.142
	c0.049-0.061,0.084-0.143,0.146-0.185c0.387-0.264,0.834-0.369,1.286-0.432c0.181-0.026,0.359-0.038,0.523-0.123
	c0.032-0.003,0.062-0.006,0.094-0.009c0.195,0.003,0.394,0.028,0.587,0.006c0.343-0.038,0.683-0.053,1.024,0.005
	c0.041,0.007,0.088-0.025,0.133-0.039c0.079,0.008,0.16,0.017,0.24,0.025c0.068,0.041,0.131,0.088,0.202,0.121
	c0.079,0.036,0.17,0.048,0.246,0.088c0.122,0.063,0.23,0.147,0.35,0.213c0.154,0.085,0.209,0.217,0.221,0.385
	c0.017,0.231-0.08,0.434-0.156,0.639c-0.029,0.079-0.075,0.146-0.015,0.227c0,0.027-0.001,0.055-0.003,0.083
	c-0.164,0.032-0.137,0.154-0.127,0.268c-0.003,0.018-0.004,0.036-0.007,0.055c-0.027,0.015-0.073,0.025-0.079,0.046
	c-0.081,0.254-0.155,0.51-0.23,0.765c-0.091,0.312-0.192,0.623-0.269,0.94c-0.032,0.137-0.013,0.286-0.019,0.431
	c-0.003,0.065-0.006,0.129-0.01,0.193c-0.027,0.045-0.076,0.089-0.081,0.135c-0.021,0.288-0.046,0.577-0.048,0.864
	c0,0.272,0.019,0.544,0.044,0.815c0.028,0.327,0.062,0.655,0.111,0.981c0.051,0.339,0.113,0.678,0.189,1.013
	c0.034,0.149,0.034,0.326,0.192,0.426c0.021,0.087-0.056,0.213,0.102,0.241c0.014,0.048,0.02,0.099,0.041,0.141
	c0.183,0.373,0.369,0.745,0.553,1.116c0.057,0.113,0.114,0.226,0.177,0.349c0.062-0.034,0.113-0.045,0.131-0.075
	c0.083-0.153,0.158-0.312,0.238-0.471c0.142-0.07,0.201-0.189,0.204-0.344c0.035-0.031,0.084-0.054,0.107-0.093
	c0.132-0.217,0.261-0.436,0.386-0.656c0.026-0.047,0.03-0.107,0.046-0.162c0.125-0.079,0.211-0.183,0.2-0.341v-0.001
	c0.13-0.058,0.158-0.178,0.185-0.298c0.005-0.019,0.009-0.035,0.015-0.054c0.133-0.073,0.202-0.186,0.208-0.337
	c0.03-0.025,0.07-0.044,0.089-0.076c0.146-0.244,0.297-0.486,0.43-0.738c0.09-0.17,0.153-0.354,0.228-0.53
	c0.09-0.012,0.094-0.082,0.099-0.149c0.115-0.108,0.197-0.234,0.2-0.398c0.17-0.143,0.257-0.331,0.302-0.544
	c0.058-0.066,0.13-0.125,0.171-0.2c0.191-0.358,0.377-0.721,0.559-1.084c0.042-0.085,0.062-0.182,0.092-0.271
	c0.004-0.019,0.008-0.036,0.013-0.055c0.097-0.007,0.101-0.069,0.089-0.144c0.041-0.062,0.088-0.118,0.12-0.184
	c0.206-0.428,0.433-0.849,0.608-1.289c0.168-0.419,0.392-0.822,0.443-1.284c0.02-0.17,0.06-0.339,0.103-0.505
	c0.058-0.22,0.128-0.438,0.19-0.657c0.009-0.035-0.006-0.075-0.01-0.113c0.003-0.031,0.005-0.061,0.009-0.091
	c0.109-0.038,0.09-0.126,0.083-0.21c0.09-0.273,0.18-0.546,0.27-0.82c0.063-0.189,0.19-0.327,0.366-0.413
	c0.169-0.082,0.345-0.15,0.518-0.224c0.084,0.008,0.175,0.034,0.209-0.082c0.015,0.001,0.027,0,0.042-0.006
	c0.09-0.001,0.18,0.008,0.269-0.006c0.124-0.021,0.263-0.008,0.353-0.127c0.023,0.001,0.047,0.002,0.072,0.004
	c0.039,0.008,0.079,0.027,0.118,0.026c0.381-0.018,0.76-0.037,1.141-0.055c0.139-0.006,0.276-0.014,0.414-0.01
	c0.315,0.01,0.628,0.032,0.922,0.159c0.027,0.012,0.066,0,0.098-0.002c0.034,0.006,0.064,0.011,0.097,0.017
	c0.048,0.038,0.096,0.079,0.145,0.115c0.363,0.27,0.552,0.445,0.318,0.974c-0.063,0.142-0.103,0.295-0.149,0.443
	c-0.097,0.294-0.198,0.587-0.281,0.884c-0.054,0.185-0.08,0.379-0.118,0.569c-0.004,0.033-0.006,0.067-0.009,0.1
	c-0.032,0.033-0.076,0.061-0.09,0.099c-0.021,0.06-0.021,0.129-0.033,0.193c-0.058,0.289-0.119,0.575-0.176,0.862
	c-0.025,0.128-0.059,0.257-0.062,0.387c-0.012,0.47-0.012,0.94-0.018,1.409c0.099,0.131,0.071,0.283,0.079,0.431
	c0.007,0.107,0.007,0.216,0.023,0.32c0.055,0.332,0.111,0.663,0.174,0.995c0.036,0.189,0.071,0.383,0.134,0.565
	c0.084,0.253,0.184,0.504,0.299,0.744c0.087,0.182,0.123,0.396,0.305,0.525c0.005,0.177,0.062,0.329,0.209,0.439
	c0.001,0.032-0.008,0.071,0.007,0.098c0.205,0.416,0.409,0.833,0.623,1.246c0.055,0.107,0.158,0.125,0.277,0.066
	c0.108-0.053,0.213-0.12,0.324-0.167c0.362-0.153,0.726-0.312,1.097-0.447c0.399-0.147,0.807-0.275,1.214-0.405
	c0.164-0.053,0.333-0.092,0.5-0.133c0.236-0.058,0.477-0.104,0.71-0.17c0.224-0.065,0.467-0.054,0.678-0.123
	c0.376-0.122,0.769-0.048,1.148-0.155c0.317-0.09,0.674-0.049,1.011-0.073c0.066-0.005,0.13-0.048,0.195-0.073
	c0.028-0.002,0.057-0.004,0.083-0.005c0.098,0.002,0.198,0.004,0.296,0.006c0.03,0.01,0.062,0.026,0.092,0.028
	c0.429,0.019,0.858,0.029,1.286,0.052c0.263,0.015,0.525,0.033,0.787,0.069c0.338,0.05,0.673,0.114,1.008,0.179
	c0.262,0.053,0.522,0.132,0.785,0.169c0.243,0.035,0.463,0.173,0.717,0.141c0.046,0.133,0.182,0.101,0.273,0.136
	c0.267,0.103,0.544,0.18,0.818,0.266c0.037,0.042,0.066,0.107,0.113,0.121c0.371,0.112,0.705,0.3,1.037,0.492
	c0.146,0.083,0.305,0.144,0.458,0.215c0.014,0.009,0.03,0.012,0.048,0.012c0.013,0.094,0.077,0.102,0.152,0.09l0.007,0.004
	c-0.002,0.103,0.064,0.105,0.14,0.103l0.002,0.001c0.008,0.023,0.008,0.056,0.024,0.067c0.246,0.188,0.494,0.375,0.747,0.557
	c0.03,0.021,0.076,0.021,0.116,0.03c0.036,0.03,0.072,0.061,0.108,0.091c0.034,0.031,0.068,0.063,0.104,0.095
	c0.002,0.062,0.021,0.105,0.094,0.097c0.23,0.246,0.452,0.497,0.688,0.734c0.351,0.351,0.639,0.746,0.907,1.158
	c0.051,0.079,0.129,0.142,0.194,0.21c0.034,0.097,0.059,0.197,0.106,0.286c0.092,0.173,0.198,0.339,0.3,0.509
	c-0.023,0.19,0.097,0.317,0.202,0.451c0.006,0.032,0.011,0.064,0.017,0.097c0.056,0.238,0.128,0.47,0.194,0.705
	c0.124,0.433,0.229,0.875,0.235,1.333c0.001,0.099,0.017,0.196,0.021,0.294c0.009,0.198,0.023,0.396,0.019,0.592
	c-0.005,0.238-0.027,0.476-0.043,0.715c-0.032,0.101-0.072,0.2-0.094,0.303c-0.104,0.508-0.318,0.971-0.566,1.422
	c-0.036,0.067-0.057,0.146-0.084,0.22l-0.004,0.006c-0.1,0.001-0.103,0.067-0.094,0.141c-0.007,0.014-0.012,0.028-0.014,0.044
	c-0.066,0.003-0.103,0.034-0.092,0.105l-0.002,0.004c-0.094,0.004-0.104,0.068-0.106,0.142l0.002-0.001
	c-0.098,0.102-0.197,0.203-0.295,0.305c-0.06,0.043-0.121,0.08-0.177,0.128c-0.358,0.322-0.704,0.661-1.139,0.888
	c-0.196,0.103-0.395,0.199-0.581,0.317c-0.379,0.243-0.789,0.342-1.235,0.301c-0.162-0.379-0.132-0.474,0.227-0.705
	c0.145-0.094,0.29-0.186,0.434-0.28c0.323-0.21,0.624-0.449,0.901-0.72c0.043-0.041,0.055-0.114,0.082-0.174
	c0.161-0.033,0.239-0.137,0.251-0.298c0.091-0.09,0.201-0.168,0.271-0.273c0.186-0.278,0.324-0.58,0.452-0.891
	c0.193-0.463,0.265-0.933,0.254-1.424c-0.002-0.067-0.036-0.134-0.057-0.202c-0.003-0.066-0.004-0.134-0.007-0.201
	c0.042-0.184-0.026-0.349-0.068-0.526c-0.088-0.37-0.239-0.717-0.359-1.073c-0.014-0.04-0.065-0.064-0.099-0.097
	c0.009-0.229-0.145-0.398-0.249-0.574c-0.249-0.414-0.538-0.803-0.87-1.155c-0.119-0.129-0.218-0.294-0.419-0.316
	c-0.033-0.033-0.066-0.066-0.1-0.102c-0.023-0.04-0.038-0.093-0.072-0.121c-0.205-0.171-0.401-0.359-0.632-0.493
	c-0.139-0.082-0.245-0.252-0.44-0.23c-0.055-0.059-0.098-0.135-0.164-0.174c-0.161-0.093-0.329-0.176-0.5-0.25
	c-0.158-0.067-0.32-0.117-0.482-0.174c-0.023-0.031-0.041-0.078-0.073-0.092c-0.413-0.173-0.83-0.337-1.265-0.448
	c-0.158-0.04-0.316-0.079-0.474-0.121c-0.211-0.057-0.42-0.129-0.633-0.173c-0.249-0.052-0.512-0.05-0.752-0.125
	c-0.354-0.11-0.717-0.107-1.074-0.163c-0.432-0.069-0.871-0.091-1.308-0.104c-0.546-0.017-1.094-0.007-1.642-0.001
	c-0.054,0.001-0.108,0.052-0.162,0.08c-0.046,0.001-0.094,0.001-0.14,0.002c-0.063-0.011-0.125-0.031-0.188-0.028
	c-0.147,0.007-0.296,0.021-0.442,0.036c-0.312,0.035-0.63,0.041-0.932,0.116c-0.32,0.079-0.646,0.114-0.965,0.188
	c-0.167,0.037-0.333,0.079-0.499,0.126c-0.188,0.053-0.376,0.105-0.557,0.172c-0.316,0.115-0.628,0.241-0.939,0.365
	c-0.108,0.043-0.119,0.131-0.087,0.226c0.098,0.293,0.213,0.578,0.297,0.874c0.083,0.293,0.118,0.6,0.21,0.889
	c0.09,0.281,0.124,0.563,0.126,0.852c0.001,0.34,0.009,0.68-0.008,1.02c-0.009,0.171-0.062,0.339-0.098,0.507
	c-0.01,0.048-0.026,0.095-0.042,0.143c-0.082,0.247-0.164,0.497-0.251,0.744c-0.072,0.204-0.243,0.368-0.255,0.599l-0.001,0.001
	c-0.056,0.043-0.123,0.077-0.165,0.131c-0.112,0.148-0.215,0.303-0.317,0.459c-0.03,0.046-0.041,0.104-0.062,0.156
	c-0.02,0.029-0.041,0.058-0.062,0.088c-0.049,0.026-0.106,0.046-0.144,0.083c-0.146,0.145-0.294,0.289-0.426,0.447
	c-0.149,0.182-0.376,0.291-0.477,0.517c-0.264,0.104-0.473,0.278-0.639,0.507c-0.446,0.284-0.895,0.567-1.342,0.852
	c-0.13,0.045-0.274,0.061-0.357,0.191c-0.017-0.004-0.029,0.001-0.042,0.009c-0.075-0.012-0.14-0.001-0.162,0.087
	c-0.014-0.002-0.026,0.001-0.038,0.009c-0.081,0.003-0.175-0.02-0.202,0.096c-0.276,0.093-0.561,0.173-0.831,0.281
	c-0.468,0.186-0.939,0.377-1.434,0.451c-0.463,0.067-0.938,0.065-1.361-0.216c-0.107-0.071-0.234-0.113-0.353-0.169v0.001
	c-0.049-0.142-0.143-0.233-0.291-0.265c0.001-0.012,0-0.023-0.006-0.034c-0.001-0.072-0.008-0.141-0.104-0.146l-0.002-0.001
	c-0.005-0.078,0.024-0.176-0.103-0.191l-0.003-0.005c-0.007-0.056-0.006-0.114-0.021-0.168c-0.053-0.178-0.141-0.351-0.161-0.53
	c-0.056-0.517,0-1.029,0.127-1.533c0.03-0.118,0.037-0.241,0.056-0.361c0.003-0.03,0.008-0.062,0.011-0.093
	c0.139-0.048,0.079-0.163,0.088-0.256c0.004-0.031,0.009-0.062,0.011-0.092c0.094-0.092,0.18-0.314,0.194-0.505
	c0.076-0.191,0.151-0.384,0.226-0.575c0.142-0.257,0.282-0.513,0.424-0.77c0.031-0.036,0.063-0.07,0.097-0.105
	c0.14-0.049,0.192-0.157,0.196-0.297L67.3,60.78c0.123-0.014,0.126-0.108,0.138-0.198c0.011-0.013,0.017-0.028,0.017-0.045
	c0.05-0.038,0.109-0.07,0.147-0.118c0.101-0.13,0.195-0.266,0.289-0.401c0.119-0.175,0.234-0.352,0.351-0.527
	c0.006-0.016,0.01-0.03,0.01-0.047c0.03-0.034,0.062-0.068,0.093-0.104l0.003-0.004c0.162-0.059,0.241-0.191,0.303-0.341
	c0.062-0.05,0.131-0.094,0.188-0.15c0.337-0.336,0.673-0.673,1.006-1.011c0.154-0.156,0.303-0.318,0.454-0.477
	c0.167-0.043,0.263-0.166,0.345-0.304c0.161-0.057,0.098-0.159,0.052-0.256c-0.216-0.452-0.431-0.907-0.65-1.355
	c-0.032-0.069-0.097-0.124-0.146-0.186c-0.029-0.101-0.051-0.204-0.089-0.301c-0.064-0.158-0.147-0.31-0.209-0.47
	c-0.107-0.278-0.203-0.562-0.304-0.844c-0.023-0.07-0.05-0.14-0.068-0.211c-0.098-0.382-0.193-0.764-0.287-1.146
	c-0.045-0.184-0.085-0.367-0.127-0.552c-0.091-0.408-0.185-0.816-0.269-1.228c-0.02-0.097-0.045-0.171-0.149-0.201
	c-0.019,0.021-0.036,0.037-0.047,0.058c-0.247,0.479-0.495,0.96-0.738,1.443c-0.077,0.15-0.142,0.307-0.211,0.462
	c-0.193,0.218-0.313,0.473-0.399,0.747c-0.015,0.006-0.036,0.01-0.043,0.021c-0.16,0.271-0.321,0.541-0.478,0.814
	c-0.017,0.032-0.007,0.079-0.01,0.118c-0.006,0.015-0.011,0.029-0.013,0.044c-0.13,0.062-0.212,0.151-0.187,0.308l-0.004,0.008
	c-0.185,0.132-0.258,0.325-0.305,0.535c-0.101,0.165-0.2,0.33-0.301,0.496c-0.045,0.043-0.101,0.08-0.135,0.132
	c-0.308,0.493-0.61,0.99-0.919,1.483c-0.172,0.271-0.346,0.541-0.526,0.806c-0.206,0.305-0.413,0.609-0.635,0.901
	c-0.066,0.09-0.062,0.153-0.027,0.247c0.153,0.394,0.313,0.784,0.443,1.186c0.113,0.349,0.203,0.707,0.283,1.064
	c0.111,0.483,0.18,0.975,0.178,1.473c-0.002,0.289-0.043,0.578-0.041,0.866c0.002,0.353-0.094,0.684-0.188,1.017
	c-0.03,0.108-0.075,0.215-0.119,0.32c-0.083,0.21-0.169,0.419-0.258,0.626c-0.082,0.193-0.169,0.386-0.254,0.578
	c-0.062,0.061-0.144,0.11-0.19,0.182c-0.21,0.336-0.503,0.598-0.779,0.875c-0.16,0.159-0.315,0.323-0.473,0.485
	c-0.058,0.025-0.122,0.043-0.175,0.077c-0.194,0.131-0.388,0.265-0.576,0.402c-0.069,0.051-0.129,0.114-0.193,0.172
	c-0.062,0.019-0.129,0.027-0.185,0.056c-0.178,0.086-0.346,0.186-0.524,0.266c-0.432,0.193-0.862,0.389-1.302,0.565
	c-0.336,0.135-0.677,0.27-1.026,0.352c-0.465,0.107-0.929,0.241-1.415,0.224c-0.032-0.002-0.066,0.009-0.098,0.013
	c-0.162,0.025-0.324,0.072-0.486,0.07c-0.434-0.006-0.869,0.049-1.304-0.074c-0.204-0.059-0.415-0.085-0.603-0.198
	c-0.033-0.02-0.08-0.02-0.12-0.027c-0.07-0.091-0.136-0.183-0.21-0.269c-0.225-0.256-0.309-0.562-0.281-0.891
	c0.013-0.168,0.078-0.336,0.141-0.497c0.068-0.183,0.16-0.356,0.244-0.533c0.112-0.019,0.096-0.113,0.109-0.19
	c0.031-0.013,0.069-0.018,0.088-0.04c0.149-0.192,0.297-0.387,0.438-0.582c0.023-0.03,0.02-0.08,0.025-0.12
	c0.096-0.104,0.19-0.208,0.287-0.312c0.24-0.217,0.443-0.461,0.603-0.741c0.082-0.101,0.165-0.201,0.246-0.302
	c0.183-0.123,0.342-0.267,0.405-0.49c0.124-0.096,0.261-0.181,0.301-0.348c0.029-0.036,0.059-0.073,0.089-0.109
	c0.131-0.108,0.257-0.222,0.306-0.395l-0.002,0.002c0.153-0.043,0.213-0.161,0.25-0.301l-0.002,0.001
	c0.031-0.035,0.063-0.069,0.098-0.104v-0.001c0.098,0.001,0.103-0.069,0.107-0.141h-0.002c0.032-0.035,0.064-0.07,0.097-0.104
	l-0.001,0.002c0.18-0.129,0.348-0.269,0.402-0.498l-0.002,0.001c0.033-0.034,0.066-0.067,0.1-0.102l-0.002,0.002
	c0.032-0.035,0.064-0.07,0.096-0.105c0.018-0.031,0.035-0.063,0.052-0.096c0.032-0.034,0.064-0.068,0.097-0.104l0.001-0.001
	c0.064-0.057,0.139-0.103,0.19-0.168c0.094-0.12,0.175-0.249,0.261-0.374c0.048-0.071,0.098-0.144,0.145-0.215
	c0.166-0.083,0.205-0.261,0.297-0.398c0.114-0.014,0.137-0.098,0.146-0.191l0.004-0.004c0.157-0.107,0.286-0.236,0.307-0.438v0.001
	c0.062-0.051,0.125-0.097,0.183-0.152c0.08-0.079,0.109-0.145,0.039-0.272c-0.208-0.378-0.382-0.774-0.574-1.161
	c-0.061-0.123-0.134-0.239-0.2-0.359c0.007-0.075-0.01-0.135-0.092-0.159c0.003-0.015,0.001-0.027-0.004-0.041
	c-0.041-0.311-0.229-0.558-0.358-0.83c-0.004-0.009-0.03-0.007-0.045-0.01l-0.002-0.003c-0.002-0.081,0.034-0.179-0.094-0.203
	l0.001,0.001c-0.016-0.092,0.042-0.211-0.1-0.252c-0.004-0.031-0.009-0.063-0.013-0.094c-0.054-0.192-0.097-0.388-0.164-0.574
	c-0.04-0.118-0.013-0.274-0.165-0.338c-0.006-0.062-0.012-0.124-0.017-0.185c0.001-0.032,0.009-0.067,0.003-0.099
	c-0.09-0.349-0.18-0.697-0.273-1.045c-0.037-0.134-0.088-0.263-0.115-0.397c-0.047-0.224-0.077-0.451-0.121-0.675
	c-0.007-0.03-0.053-0.053-0.082-0.077c-0.034-0.206,0.076-0.448-0.152-0.619c-0.197,0.449-0.41,0.875-0.57,1.32
	c-0.146,0.406-0.311,0.803-0.48,1.197c-0.096,0.225-0.164,0.46-0.244,0.69l0,0c-0.025,0.017-0.065,0.029-0.076,0.054
	c-0.107,0.248-0.209,0.498-0.315,0.747c-0.188,0.442-0.374,0.888-0.569,1.326c-0.169,0.38-0.35,0.753-0.529,1.127
	c-0.092,0.192-0.194,0.38-0.283,0.574c-0.194,0.42-0.385,0.841-0.572,1.265c-0.09,0.206-0.244,0.39-0.246,0.632l0.002-0.003
	c-0.045,0.035-0.104,0.059-0.13,0.103c-0.055,0.09-0.093,0.19-0.142,0.285c-0.482,0.932-0.965,1.865-1.451,2.795
	c-0.098,0.187-0.212,0.364-0.312,0.55c-0.104,0.193-0.206,0.39-0.302,0.587c-0.031,0.065-0.038,0.142-0.055,0.213
	c-0.031,0.024-0.072,0.042-0.092,0.073c-0.115,0.197-0.232,0.394-0.338,0.596c-0.082,0.155-0.145,0.318-0.217,0.479
	c-0.189,0.113-0.256,0.301-0.294,0.502c-0.03,0.024-0.072,0.043-0.089,0.074c-0.071,0.12-0.124,0.252-0.202,0.365
	c-0.257,0.37-0.524,0.733-0.786,1.101c-0.032,0.045-0.049,0.1-0.072,0.148c-0.062,0.049-0.132,0.091-0.187,0.147
	c-0.401,0.417-0.815,0.817-1.346,1.062c-0.241,0.111-0.507,0.197-0.77,0.219c-0.21,0.018-0.434-0.067-0.645-0.131
	c-0.28-0.085-0.517-0.244-0.715-0.463c-0.047-0.053-0.111-0.092-0.167-0.137c-0.083-0.157-0.166-0.313-0.247-0.472
	c-0.185-0.363-0.324-0.741-0.372-1.149c-0.013-0.115,0.002-0.253-0.12-0.335c0.001-0.025,0.001-0.053,0.001-0.079
	c0.01-0.039,0.03-0.078,0.028-0.116c-0.016-0.293-0.033-0.587-0.057-0.88c-0.003-0.039-0.051-0.073-0.08-0.11
	c0.001-0.227,0.001-0.453,0.002-0.681c0.089-0.033,0.081-0.109,0.084-0.184c0.005-0.122,0.019-0.243,0.022-0.365
	c0.008-0.236,0.01-0.471,0.013-0.707c0.004-0.067,0.007-0.135,0.011-0.202c0.106-0.186,0.13-0.376,0.065-0.6
	c-0.134,0.089-0.223,0.165-0.184,0.311c-0.004,0.032-0.007,0.064-0.012,0.098c-0.13,0.121-0.221,0.259-0.192,0.447
	c-0.138,0.312-0.274,0.625-0.415,0.936c-0.199,0.44-0.404,0.876-0.599,1.318c-0.091,0.206-0.163,0.421-0.244,0.632l0,0
	c-0.098,0.009-0.1,0.077-0.093,0.15c-0.006,0.015-0.01,0.029-0.01,0.044c-0.091,0.016-0.1,0.079-0.089,0.153
	c-0.135,0.217-0.285,0.427-0.315,0.691c-0.058,0.067-0.125,0.128-0.17,0.204c-0.19,0.324-0.358,0.663-0.561,0.98
	c-0.355,0.555-0.753,1.068-1.336,1.42c-0.514,0.309-1.061,0.402-1.64,0.373c-0.188-0.009-0.378-0.042-0.563-0.08
	c-0.375-0.077-0.721-0.225-1.016-0.476c-0.181-0.152-0.354-0.314-0.531-0.473c-0.037-0.081-0.066-0.167-0.114-0.241
	c-0.051-0.081-0.133-0.144-0.181-0.226c-0.175-0.304-0.34-0.613-0.512-0.918c-0.035-0.061-0.088-0.108-0.133-0.164
	c-0.007-0.079,0.003-0.167-0.096-0.204c-0.004-0.041,0.001-0.086-0.013-0.123c-0.144-0.383-0.291-0.766-0.437-1.148
	c-0.02-0.052-0.046-0.103-0.059-0.156c-0.077-0.312-0.155-0.622-0.224-0.935c-0.067-0.305-0.138-0.609-0.183-0.918
	c-0.052-0.353-0.086-0.706-0.113-1.061c-0.031-0.386-0.076-0.775-0.057-1.161c0.031-0.626,0.1-1.252,0.171-1.874
	c0.056-0.499,0.124-0.998,0.224-1.489c0.03-0.15,0.062-0.302,0.085-0.454c0.028-0.186,0.066-0.368,0.112-0.55
	c0.056-0.223,0.119-0.445,0.187-0.663c0.052-0.172,0.145-0.335,0.166-0.508c0.021-0.16,0.18-0.29,0.096-0.48
	c-0.042,0.015-0.082,0.023-0.116,0.042c-0.383,0.209-0.766,0.416-1.145,0.63c-0.06,0.034-0.1,0.1-0.15,0.149
	c-0.016,0.003-0.033,0.006-0.05,0.008c-0.147,0.008-0.273,0.053-0.342,0.197c-0.285,0.153-0.572,0.302-0.854,0.461
	c-0.218,0.123-0.429,0.26-0.643,0.39c-0.33,0.188-0.662,0.373-0.988,0.565c-0.057,0.034-0.092,0.106-0.136,0.159
	c-0.024,0.002-0.047,0.003-0.071,0.004c-0.149-0.043-0.157,0.071-0.168,0.162c-0.008,0.07,0.302,0.69,0.361,0.752l-0.001-0.002
	c0.014,0.107-0.038,0.236,0.102,0.3l-0.001-0.002c-0.033,0.142,0.065,0.247,0.098,0.369c0.078,0.289,0.144,0.582,0.214,0.871
	c0.038,0.337,0.071,0.672,0.116,1.008c0.008,0.058,0.065,0.108,0.099,0.162c0,0.042-0.002,0.081-0.003,0.123
	c-0.007,0.022-0.021,0.045-0.02,0.068c0.018,0.613,0.037,1.228,0.058,1.841c0.001,0.028,0.027,0.057,0.041,0.086
	c0,0.049,0,0.099-0.002,0.148c-0.028,0.044-0.081,0.086-0.081,0.129c-0.007,0.273-0.002,0.546-0.001,0.819
	c-0.003,0.067-0.005,0.136-0.008,0.202c-0.029,0.049-0.078,0.094-0.084,0.145c-0.033,0.267-0.02,0.533-0.11,0.797
	c-0.091,0.269-0.117,0.559-0.173,0.839c-0.047,0.232-0.095,0.464-0.142,0.695c-0.022,0.013-0.057,0.022-0.061,0.039
	c-0.047,0.206-0.088,0.412-0.132,0.618c-0.003,0.031-0.006,0.06-0.009,0.089c-0.046,0.055-0.107,0.102-0.135,0.163
	c-0.105,0.238-0.188,0.487-0.3,0.723c-0.2,0.424-0.416,0.84-0.62,1.261c-0.07,0.146-0.126,0.297-0.188,0.446
	c-0.029,0.014-0.071,0.021-0.085,0.043c-0.12,0.188-0.234,0.379-0.351,0.569c-0.146,0.061-0.184,0.218-0.269,0.327
	c-0.152,0.196-0.37,0.352-0.438,0.608c-0.033,0.021-0.073,0.038-0.1,0.066c-0.398,0.429-0.795,0.859-1.191,1.29
	c-0.146-0.015-0.175,0.084-0.193,0.194c-0.036,0.031-0.071,0.063-0.107,0.095c-0.066,0.025-0.142,0.036-0.195,0.078
	c-0.124,0.095-0.239,0.201-0.353,0.308c-0.088,0.082-0.168,0.171-0.253,0.258h0.001c-0.227,0.072-0.424,0.186-0.543,0.403
	c-0.164,0.091-0.333,0.171-0.489,0.273c-0.597,0.396-1.244,0.694-1.897,0.982c-0.193,0.085-0.394,0.153-0.594,0.222
	c-0.404,0.139-0.805,0.289-1.216,0.401c-0.325,0.091-0.661,0.146-0.996,0.191c-0.35,0.047-0.692,0.15-1.052,0.137
	c-0.142-0.004-0.286,0.056-0.429,0.087c-0.033,0-0.067,0-0.101,0c-0.295-0.016-0.59-0.03-0.886-0.046
	c-0.303-0.016-0.606-0.03-0.909-0.045c-0.082-0.006-0.164-0.011-0.246-0.016c-0.017-0.025-0.032-0.071-0.051-0.073
	c-0.149-0.013-0.298-0.018-0.447-0.024c-0.031-0.002-0.061-0.003-0.091-0.005c-0.091-0.145-0.234-0.08-0.358-0.091
	c-0.046-0.002-0.093-0.006-0.14-0.009c-0.043-0.03-0.083-0.07-0.13-0.089c-0.214-0.08-0.444-0.129-0.643-0.235
	c-0.287-0.153-0.551-0.346-0.825-0.521c-0.067-0.065-0.135-0.131-0.202-0.195c-0.001-0.066-0.028-0.106-0.101-0.1h0
	c-0.046-0.174-0.133-0.315-0.3-0.397c-0.005-0.015-0.011-0.032-0.017-0.047c0.013-0.069-0.016-0.1-0.085-0.091
	c-0.044-0.058-0.087-0.116-0.131-0.174c-0.015-0.045-0.029-0.09-0.043-0.135c-0.023-0.034-0.047-0.068-0.071-0.103
	c-0.032-0.036-0.064-0.071-0.097-0.106c0.002-0.016,0-0.03-0.007-0.044c0.021-0.119-0.042-0.21-0.109-0.298
	c0.015-0.074,0-0.132-0.083-0.153c-0.007-0.078,0.015-0.172-0.097-0.2c-0.051-0.219-0.105-0.438-0.15-0.659
	c-0.053-0.259-0.172-0.504-0.167-0.777c0.003-0.117-0.021-0.229-0.152-0.28c0.002-0.053,0.003-0.106,0.005-0.161
	c0.018-0.033,0.052-0.066,0.052-0.101c0-0.519-0.005-1.036-0.009-1.554c0.004-0.069,0.008-0.137,0.012-0.204
	c0.031-0.038,0.084-0.073,0.088-0.113c0.012-0.108,0.001-0.22,0-0.33c0.002-0.033,0.004-0.066,0.007-0.1
	c0.034-0.04,0.085-0.074,0.097-0.119c0.066-0.244,0.11-0.494,0.186-0.735c0.091-0.29,0.195-0.576,0.312-0.857
	c0.126-0.301,0.275-0.593,0.41-0.892c0.056-0.124,0.1-0.254,0.15-0.381c0.031-0.023,0.068-0.043,0.09-0.073
	c0.096-0.133,0.178-0.274,0.28-0.4c0.356-0.441,0.718-0.878,1.075-1.32c0.045-0.055,0.069-0.128,0.103-0.193
	c0.033-0.033,0.066-0.066,0.099-0.1c0.133,0.003,0.169-0.096,0.202-0.196c0.055-0.032,0.118-0.055,0.163-0.097
	c0.237-0.213,0.472-0.429,0.702-0.65c0.098-0.094,0.185-0.201,0.276-0.303c0.067-0.065,0.135-0.13,0.203-0.195
	c0.146-0.027,0.263-0.088,0.301-0.247c0.053-0.02,0.116-0.027,0.16-0.061c0.224-0.164,0.444-0.336,0.668-0.502
	c0.394-0.291,0.792-0.577,1.185-0.869c0.13-0.097,0.25-0.207,0.375-0.312c0.039-0.012,0.083-0.017,0.115-0.038
	c0.217-0.146,0.427-0.3,0.646-0.441c0.353-0.225,0.711-0.44,1.064-0.665c0.093-0.06,0.175-0.137,0.261-0.205
	c0.258-0.086,0.504-0.19,0.685-0.406c0.018-0.005,0.036-0.01,0.053-0.016c0.07,0.02,0.098-0.016,0.1-0.081
	c0.195-0.099,0.395-0.188,0.584-0.296c0.118-0.065,0.221-0.157,0.331-0.237c0.165,0.019,0.266-0.108,0.395-0.174
	c0.544-0.28,1.089-0.558,1.63-0.844c0.126-0.066,0.239-0.156,0.358-0.235c0.079-0.039,0.159-0.077,0.238-0.117
	c0.024-0.013,0.05-0.024,0.074-0.037c-0.024-0.015-0.048-0.029-0.072-0.043c-0.034-0.035-0.069-0.069-0.104-0.104
	c-0.042-0.112-0.109-0.195-0.238-0.206l0,0.001c-0.035-0.029-0.071-0.061-0.106-0.091c-0.068-0.071-0.127-0.152-0.205-0.212
	c-0.305-0.234-0.612-0.466-0.926-0.688c-0.265-0.189-0.54-0.364-0.811-0.544c-0.218-0.15-0.436-0.301-0.654-0.451
	c-0.003-0.017-0.001-0.04-0.012-0.048c-0.241-0.178-0.48-0.357-0.726-0.527c-0.085-0.059-0.19-0.088-0.286-0.131
	c-0.037-0.032-0.074-0.063-0.111-0.095l0,0c-0.034-0.028-0.068-0.057-0.103-0.083c-0.011-0.014-0.025-0.019-0.042-0.02
	c-0.021-0.034-0.033-0.078-0.062-0.1c-0.136-0.097-0.275-0.19-0.418-0.277c-0.051-0.032-0.116-0.044-0.176-0.065
	c-0.06-0.062-0.113-0.133-0.182-0.184c-0.292-0.212-0.584-0.421-0.882-0.625c-0.134-0.091-0.281-0.164-0.421-0.245
	c-0.006-0.016-0.008-0.036-0.019-0.045c-0.277-0.209-0.554-0.417-0.836-0.622c-0.036-0.025-0.094-0.021-0.143-0.029
	c-0.01-0.091-0.079-0.096-0.148-0.1c-0.035-0.033-0.07-0.066-0.105-0.099c-0.009-0.006-0.019-0.008-0.03-0.006
	c-0.053-0.062-0.097-0.134-0.159-0.184c-0.122-0.097-0.258-0.174-0.379-0.271c-0.353-0.278-0.699-0.564-1.053-0.843
	c-0.133-0.104-0.281-0.189-0.421-0.283c-0.003-0.017-0.002-0.038-0.012-0.047c-0.243-0.214-0.485-0.428-0.731-0.639
	c-0.021-0.018-0.062-0.015-0.094-0.021c-0.034-0.032-0.068-0.065-0.103-0.097c-0.032-0.035-0.064-0.068-0.097-0.103
	c-0.034-0.033-0.068-0.065-0.103-0.099c-0.036-0.03-0.072-0.06-0.108-0.089c-0.038-0.155-0.163-0.208-0.292-0.255
	c-0.044-0.059-0.082-0.121-0.132-0.173c-0.459-0.477-0.92-0.951-1.382-1.426c-0.021-0.021-0.058-0.028-0.087-0.041
	c-0.03-0.036-0.06-0.071-0.09-0.105c-0.032-0.035-0.065-0.069-0.098-0.103c-0.033-0.034-0.066-0.066-0.1-0.1
	c-0.019-0.045-0.027-0.096-0.056-0.133c-0.249-0.317-0.507-0.628-0.749-0.951c-0.222-0.295-0.415-0.613-0.642-0.905
	c-0.102-0.133-0.106-0.34-0.302-0.399c0.001-0.015-0.002-0.03-0.009-0.044c-0.008-0.046-0.005-0.102-0.028-0.142
	c-0.372-0.647-0.703-1.312-0.923-2.028c-0.009-0.029-0.058-0.047-0.088-0.069c-0.004-0.033-0.008-0.066-0.012-0.098
	c-0.009-0.072-0.01-0.147-0.03-0.218c-0.046-0.174-0.113-0.342-0.15-0.517c-0.053-0.257-0.08-0.52-0.131-0.777
	c-0.092-0.459-0.071-0.918-0.006-1.378c0.034-0.244,0.08-0.485,0.121-0.728c0.04-0.234,0.062-0.473,0.122-0.701
	c0.075-0.281,0.183-0.553,0.27-0.831c0.168-0.539,0.343-1.074,0.604-1.578c0.198-0.383,0.36-0.785,0.572-1.16
	c0.306-0.541,0.637-1.069,0.97-1.594c0.153-0.242,0.343-0.46,0.505-0.695c0.068-0.099,0.108-0.217,0.161-0.327l-0.001,0.001
	c0.187-0.125,0.31-0.298,0.389-0.506c0.016-0.021,0.033-0.042,0.049-0.063c0.096-0.045,0.13-0.088,0.193-0.236
	c0.24-0.159,0.386-0.393,0.508-0.645c0.049-0.053,0.097-0.107,0.146-0.161c0.073-0.045,0.159-0.079,0.217-0.139
	c0.209-0.218,0.412-0.442,0.61-0.669c0.04-0.045,0.051-0.115,0.076-0.173l0,0c0.036-0.016,0.08-0.024,0.106-0.051
	c0.357-0.346,0.713-0.694,1.066-1.044c0.037-0.037,0.052-0.096,0.077-0.145c0.095-0.063,0.197-0.116,0.282-0.191
	c0.553-0.488,1.102-0.98,1.651-1.474c0.058-0.053,0.104-0.119,0.156-0.18c0.046-0.015,0.101-0.019,0.138-0.047
	c0.208-0.158,0.415-0.321,0.617-0.487c0.027-0.022,0.03-0.073,0.045-0.11c0.128-0.013,0.213-0.077,0.245-0.205l-0.001,0.002
	c0.147,0.001,0.242-0.07,0.291-0.207l0.003-0.002c0.061-0.024,0.129-0.036,0.179-0.073c0.317-0.23,0.63-0.466,0.942-0.702
	c0.017-0.013,0.018-0.045,0.026-0.067c0.119-0.038,0.243-0.067,0.301-0.196c0.035-0.032,0.069-0.064,0.104-0.096
	c0.036-0.032,0.07-0.064,0.105-0.095c0.055-0.015,0.119-0.017,0.164-0.047c0.249-0.168,0.488-0.352,0.74-0.516
	c0.405-0.262,0.814-0.519,1.228-0.766c0.729-0.434,1.464-0.858,2.194-1.289C25.708,23.712,25.716,23.672,25.731,23.644z
	 M42.205,53.413c-0.032,0.036-0.063,0.07-0.094,0.105H42.11c-0.031,0.034-0.063,0.068-0.095,0.103l-0.001,0.001
	c-0.223,0.037-0.31,0.232-0.437,0.38c-0.011,0.014,0,0.047,0.002,0.07c-0.007,0.014-0.012,0.029-0.017,0.045
	c-0.069,0.002-0.101,0.032-0.087,0.104l-0.005,0.008c-0.191,0.081-0.298,0.222-0.309,0.432l0,0
	c-0.152,0.096-0.278,0.208-0.291,0.404l-0.001,0.003c-0.034,0.021-0.079,0.033-0.097,0.062c-0.121,0.203-0.238,0.409-0.352,0.615
	c-0.037,0.068-0.06,0.144-0.089,0.216c-0.204,0.38-0.408,0.761-0.611,1.143c-0.03,0.023-0.075,0.042-0.09,0.073
	c-0.238,0.518-0.48,1.032-0.672,1.571c-0.142,0.397-0.258,0.8-0.379,1.203c-0.04,0.135-0.087,0.266-0.12,0.401
	c-0.01,0.04,0.013,0.089,0.021,0.135c-0.005,0.049-0.01,0.098-0.015,0.147c-0.024,0.02-0.067,0.036-0.071,0.059
	c-0.041,0.279-0.153,0.55-0.112,0.841c-0.003,0.048-0.006,0.098-0.009,0.146c-0.025,0.019-0.066,0.035-0.071,0.058
	c-0.047,0.23-0.107,0.46-0.04,0.697c-0.004,0.087-0.009,0.172-0.012,0.258c-0.114,0.146-0.095,0.329-0.103,0.49
	c-0.021,0.479-0.017,0.961,0,1.44c0.004,0.138-0.011,0.301,0.116,0.412c0,0.092,0,0.185,0,0.277
	c-0.006,0.081-0.033,0.169-0.014,0.243c0.093,0.375,0.186,0.751,0.305,1.117c0.039,0.118,0.076,0.269,0.226,0.324
	c0.093,0.218,0.247,0.327,0.496,0.322c0.188-0.004,0.306-0.109,0.421-0.226c0.527-0.537,0.826-1.217,1.156-1.875
	c0.208-0.416,0.388-0.846,0.57-1.274c0.063-0.148,0.094-0.312,0.139-0.469c0.007-0.012,0.009-0.025,0.006-0.039
	c0.026-0.02,0.065-0.034,0.076-0.06c0.188-0.481,0.377-0.964,0.56-1.448c0.042-0.112,0.065-0.231,0.097-0.349
	c0.028-0.028,0.069-0.054,0.083-0.088c0.146-0.38,0.292-0.758,0.431-1.14c0.05-0.138,0.083-0.281,0.124-0.423
	c0.024-0.02,0.061-0.035,0.071-0.06c0.116-0.308,0.229-0.614,0.34-0.923c0.118-0.327,0.238-0.652,0.35-0.981
	c0.069-0.2,0.184-0.39,0.156-0.613l0,0c0.145-0.038,0.085-0.159,0.101-0.249c0.006-0.014,0.006-0.027,0.003-0.041
	c0.126-0.052,0.087-0.163,0.094-0.259c0.035-0.129,0.071-0.257,0.107-0.387c0.041-0.048,0.102-0.092,0.117-0.146
	c0.146-0.513,0.285-1.027,0.425-1.541c0.041-0.15,0.067-0.304,0.116-0.449c0.091-0.273,0.146-0.552,0.173-0.838
	c0.016-0.164,0.043-0.329,0.038-0.493c-0.006-0.192,0.021-0.411-0.166-0.542c-0.229-0.16-0.493-0.16-0.757-0.111
	c-0.021,0.004-0.035,0.051-0.052,0.076l-0.001,0.001c-0.043,0.026-0.086,0.052-0.129,0.078c-0.015-0.002-0.032-0.004-0.048-0.006
	c-0.04-0.076-0.097-0.073-0.163-0.038c-0.105,0.057-0.214,0.106-0.317,0.167c-0.035,0.021-0.053,0.068-0.08,0.103
	c-0.018,0.005-0.036,0.008-0.054,0.012c-0.233,0.056-0.435,0.155-0.543,0.387l-0.004,0.006c-0.149,0.018-0.27,0.073-0.294,0.244
	l-0.004,0.005C42.279,53.357,42.243,53.386,42.205,53.413z M57.646,66.267c-0.069,0-0.098,0.036-0.088,0.104l-0.008,0.006
	c-0.067-0.007-0.1,0.022-0.096,0.091l-0.004,0.005c-0.068-0.003-0.101,0.028-0.094,0.097l-0.005,0.007
	c-0.117,0.037-0.2,0.104-0.206,0.236l0,0c-0.032,0.033-0.064,0.066-0.097,0.102l-0.002,0.001c-0.03,0.034-0.06,0.067-0.091,0.102
	l-0.004,0.005c-0.253,0.115-0.363,0.367-0.529,0.562c-0.076,0.09,0.018,0.224,0.146,0.208c0.162-0.02,0.322-0.068,0.475-0.125
	c0.077-0.028,0.189-0.037,0.201-0.157c0.162-0.089,0.337-0.162,0.488-0.27c0.474-0.34,0.938-0.695,1.342-1.122
	c0.374-0.395,0.735-0.794,0.96-1.296c0.091-0.016,0.1-0.078,0.086-0.152c0.008-0.016,0.011-0.031,0.013-0.049
	c0.137-0.039,0.09-0.155,0.103-0.245l0,0c0.041-0.047,0.108-0.087,0.122-0.141c0.076-0.326,0.151-0.654,0.207-0.986
	c0.021-0.131-0.003-0.27-0.005-0.404c-0.02-0.008-0.04-0.017-0.058-0.024c-0.047,0.036-0.102,0.064-0.136,0.109
	c-0.246,0.306-0.489,0.613-0.727,0.925c-0.048,0.063-0.072,0.145-0.106,0.218V64.07c-0.031,0.034-0.062,0.07-0.092,0.105
	l-0.002,0.004c-0.226,0.119-0.33,0.336-0.447,0.544l-0.003,0.002c-0.033,0.019-0.075,0.032-0.098,0.061
	c-0.144,0.17-0.275,0.347-0.423,0.513c-0.158,0.18-0.333,0.346-0.49,0.526c-0.09,0.104-0.158,0.226-0.236,0.339v-0.001
	c-0.033,0.035-0.064,0.068-0.097,0.102L57.646,66.267z M18.547,69.341c-0.032,0.05-0.065,0.102-0.098,0.152
	c-0.027,0.017-0.064,0.028-0.08,0.052c-0.118,0.19-0.227,0.384-0.345,0.573c-0.296,0.473-0.491,0.993-0.69,1.51
	c-0.175,0.452-0.236,0.94-0.301,1.419c-0.071,0.521-0.006,1.044,0.193,1.533c0.163,0.401,0.411,0.747,0.878,0.85
	c0.114,0.163,0.291,0.147,0.458,0.16c0.109-0.001,0.219-0.003,0.329-0.005c0.159,0.118,0.459,0.12,0.632,0.007
	c0.059,0,0.118,0,0.177-0.001c0.072,0.008,0.148,0.035,0.215,0.021c0.306-0.063,0.616-0.117,0.909-0.219
	c0.146-0.05,0.323-0.064,0.433-0.202c0.116-0.033,0.238-0.056,0.35-0.101c0.143-0.058,0.275-0.138,0.417-0.2
	c0.643-0.276,1.212-0.672,1.772-1.083c0.095-0.069,0.164-0.177,0.245-0.268c0.038-0.013,0.087-0.014,0.114-0.038
	c0.365-0.345,0.728-0.691,1.087-1.041c0.043-0.043,0.057-0.115,0.083-0.174c0.02-0.029,0.04-0.059,0.06-0.089
	c0.186-0.042,0.263-0.178,0.301-0.349c0.078-0.024,0.14-0.065,0.14-0.158c0.022-0.01,0.054-0.012,0.066-0.028
	c0.142-0.19,0.297-0.372,0.415-0.577c0.118-0.204,0.319-0.368,0.326-0.63c0.129-0.04,0.164-0.145,0.176-0.263
	c0.008-0.028,0.016-0.055,0.023-0.082c0.183-0.166,0.292-0.37,0.323-0.615c0.003-0.018,0.008-0.036,0.012-0.054
	c0.152-0.029,0.082-0.154,0.103-0.24c0.138-0.037,0.083-0.156,0.104-0.244c0.021-0.011,0.059-0.017,0.062-0.032
	c0.054-0.186,0.161-0.359,0.139-0.564c0.141-0.12,0.142-0.305,0.182-0.46c0.094-0.354,0.159-0.717,0.223-1.079
	c0.021-0.116,0.001-0.239,0-0.358c0-0.061,0-0.12,0-0.179c0.027-0.064,0.076-0.128,0.078-0.19c0.006-0.468,0.006-0.937,0-1.403
	c-0.001-0.062-0.052-0.125-0.08-0.187c0-0.175,0-0.35,0-0.523c0.005-0.063,0.021-0.129,0.01-0.188
	c-0.037-0.224-0.081-0.447-0.13-0.668c-0.008-0.04-0.054-0.073-0.082-0.109c-0.001-0.028-0.001-0.058-0.002-0.086
	c0.013-0.235-0.002-0.301-0.101-0.407c-0.007-0.056-0.014-0.111-0.021-0.166c-0.174-0.065-0.279,0.066-0.389,0.129
	c-0.477,0.271-0.942,0.563-1.411,0.85c-0.383,0.233-0.774,0.458-1.146,0.707c-0.728,0.488-1.446,0.99-2.163,1.492
	c-0.131,0.092-0.24,0.215-0.359,0.324c-0.179,0.041-0.304,0.15-0.389,0.309c-0.045,0.015-0.099,0.018-0.135,0.046
	c-0.15,0.112-0.299,0.227-0.439,0.352c-0.101,0.09-0.187,0.195-0.281,0.294c-0.073,0.05-0.154,0.092-0.219,0.151
	c-0.341,0.314-0.679,0.634-1.018,0.952c-0.032,0.031-0.065,0.064-0.096,0.098l-0.002,0.002c-0.037,0.016-0.083,0.022-0.108,0.05
	c-0.193,0.212-0.388,0.425-0.573,0.646c-0.071,0.085-0.114,0.194-0.17,0.293c-0.089,0.01-0.097,0.077-0.103,0.146
	C18.57,69.21,18.551,69.269,18.547,69.341z M70.846,63.384c0.033-0.035,0.067-0.068,0.098-0.103c0.032-0.022,0.072-0.04,0.094-0.07
	c0.263-0.371,0.482-0.766,0.621-1.199c0.139-0.44,0.25-0.889,0.228-1.357c-0.015-0.337,0.032-0.676-0.098-1.006
	c-0.065-0.172-0.087-0.362-0.137-0.58c-0.094,0.044-0.166,0.062-0.214,0.103c-0.435,0.373-0.806,0.805-1.158,1.251
	c-0.252,0.323-0.485,0.66-0.715,1c-0.146,0.217-0.29,0.439-0.398,0.677c-0.204,0.445-0.389,0.901-0.567,1.357
	c-0.064,0.166-0.092,0.346-0.137,0.52c-0.004,0.017-0.007,0.032-0.011,0.049c-0.149,0.062-0.085,0.192-0.094,0.299
	c-0.062,0.195-0.058,0.386,0.029,0.568c0.266,0.054,0.451,0.002,0.657-0.179c0.043-0.005,0.088,0,0.122-0.017
	c0.535-0.273,1.04-0.593,1.474-1.014C70.726,63.599,70.778,63.483,70.846,63.384z"/>
</svg>
