<?xml version="1.0" encoding="utf-8"?>
<!-- Generator: Adobe Illustrator 16.0.0, SVG Export Plug-In . SVG Version: 6.00 Build 0)  -->
<!DOCTYPE svg PUBLIC "-//W3C//DTD SVG 1.1//EN" "http://www.w3.org/Graphics/SVG/1.1/DTD/svg11.dtd">
<svg version="1.1" id="Layer_1" xmlns="http://www.w3.org/2000/svg" xmlns:xlink="http://www.w3.org/1999/xlink" x="0px" y="0px"
	 width="100px" height="100px" viewBox="0 0 100 100" enable-background="new 0 0 100 100" xml:space="preserve">
<g>
	<path fill-rule="evenodd" clip-rule="evenodd" fill="#FE5723" d="M44.521,34.483c-0.379,0.582-0.712,1.25-1.188,1.793
		c-2.486,2.839-4.411,6.008-5.011,9.755c-0.951,5.929,0.184,11.471,3.729,16.41c0.531,0.739,1.235,1.353,1.829,2.049
		c0.819,0.961,0.908,1.778,0.283,2.889c-1.029,1.827-2.109,3.628-3.136,5.457c-1.616,2.878-3.193,5.776-4.81,8.653
		c-1.038,1.846-2.281,2.035-3.906,0.685c-5.749-4.775-9.979-10.617-12.504-17.675c-0.564-1.577-0.532-1.931,0.738-3.093
		c3.516-3.218,5.067-7.246,4.83-11.95c-0.197-3.917-1.819-7.231-4.77-9.81c-1.745-1.526-1.472-1.926-0.877-3.714
		c2.108-6.335,5.81-11.611,10.624-16.162c0.521-0.493,0.995-1.042,1.543-1.502c1.363-1.143,2.717-0.908,3.613,0.61
		c2.213,3.752,4.407,7.515,6.627,11.262c0.566,0.955,1.226,1.855,1.791,2.81C44.168,33.362,44.28,33.849,44.521,34.483z"/>
	<path fill-rule="evenodd" clip-rule="evenodd" fill="#FE5723" d="M90.175,45.621c-2.1,0-4.2-0.015-6.301,0.008
		c-0.679,0.008-1.36,0.089-2.035,0.184c-1.533,0.216-2.496-0.372-3.077-1.807c-1.461-3.607-3.151-7.116-6.259-9.606
		c-4.398-3.523-9.35-5.625-15.133-5.128c-1.236,0.106-2.464,0.343-3.689,0.553c-1.34,0.23-2.081-0.086-2.765-1.265
		c-2.4-4.139-4.795-8.282-7.2-12.419c-0.294-0.507-0.659-0.973-0.958-1.478c-0.842-1.428-0.417-2.745,1.1-3.364
		c4.592-1.875,9.345-2.973,14.332-2.879c1.441,0.027,2.884,0.099,4.323,0.196c1.486,0.101,2.208,0.819,2.259,2.312
		c0.229,6.652,5.354,12.483,11.763,13.735c3.379,0.66,6.573-0.057,9.563-1.62c2.925-1.528,3.162-1.568,5.19,1.042
		c3.641,4.683,6.338,9.842,7.741,15.639c0.244,1.011,0.599,1.998,0.796,3.017c0.348,1.79-0.525,2.838-2.365,2.871
		c-1.87,0.034-3.741,0.008-5.612,0.008C91.291,45.621,90.733,45.621,90.175,45.621z"/>
	<path fill-rule="evenodd" clip-rule="evenodd" fill="#FE5723" d="M53.574,70.29c0.225,0.045,0.511,0.113,0.801,0.159
		c7.939,1.28,14.831-0.715,20.23-6.812c1.812-2.046,3.124-4.506,3.958-7.17c0.694-2.222,1.097-2.481,3.464-2.481
		c4.593,0,9.187,0.006,13.78-0.008c0.547-0.002,1.097-0.088,1.64-0.175c1.435-0.231,2.703,1.018,2.427,2.562
		c-0.334,1.867-0.811,3.708-1.252,5.555c-1.314,5.501-4.194,10.179-7.682,14.532c-1.071,1.338-1.791,1.502-3.295,0.613
		c-2.945-1.74-6.111-2.673-9.495-2.084c-4.304,0.748-7.932,2.71-10.313,6.591c-1.399,2.279-2.305,4.688-2.448,7.372
		c-0.09,1.684-0.711,2.226-2.425,2.472c-6.246,0.896-12.254-0.068-18.129-2.194c-1.921-0.696-2.381-1.885-1.354-3.664
		c0.638-1.104,1.358-2.162,1.986-3.272c1.978-3.5,3.934-7.013,5.889-10.525C51.831,70.905,52.456,70.3,53.574,70.29z"/>
	<path fill-rule="evenodd" clip-rule="evenodd" fill="#FE5723" d="M80.067,99.829C73.685,99.776,69.57,95.178,69.58,89.55
		c0.011-5.759,4.165-10.485,10.29-10.534c5.648-0.046,10.502,4.763,10.497,10.331C90.362,94.637,86.02,99.92,80.067,99.829z"/>
	<path fill-rule="evenodd" clip-rule="evenodd" fill="#FE5723" d="M79.813-0.012c4.102,0.157,7.383,2.755,9.091,6.507
		c2.973,6.533-2.275,13.822-8.876,14.287c-5.031,0.354-9.812-3.61-10.99-8.786C67.683,6.039,73.182-0.46,79.813-0.012z"/>
	<path fill-rule="evenodd" clip-rule="evenodd" fill="#FE5723" d="M10.898,60.874c-5.765-0.027-10.49-4.68-10.479-10.298
		c0.01-5.698,4.96-10.583,10.342-10.487c5.905,0.104,10.542,4.565,10.472,10.358C21.158,56.7,16.58,60.86,10.898,60.874z"/>
</g>
</svg>
