<?xml version="1.0" encoding="utf-8"?>
<!-- Generator: Adobe Illustrator 16.0.0, SVG Export Plug-In . SVG Version: 6.00 Build 0)  -->
<!DOCTYPE svg PUBLIC "-//W3C//DTD SVG 1.1//EN" "http://www.w3.org/Graphics/SVG/1.1/DTD/svg11.dtd">
<svg version="1.1" id="Layer_1" xmlns="http://www.w3.org/2000/svg" xmlns:xlink="http://www.w3.org/1999/xlink" x="0px" y="0px"
	 width="100px" height="100px" viewBox="0 0 100 100" enable-background="new 0 0 100 100" xml:space="preserve">
<g>
	<path fill="#FEFEFE" d="M86.473,34.347c-0.017-0.044-0.026-0.085-0.047-0.12c-0.073-0.116-0.146-0.232-0.227-0.343
		c-1.955-2.699-4.402-4.837-7.357-6.375c-3.706-1.928-7.672-2.743-11.837-2.677c-2.117,0.033-4.162,0.466-6.146,1.146
		c-2.511,0.86-4.974,1.858-7.485,2.716c-0.919,0.314-1.923,0.573-2.876,0.538c-1.057-0.038-2.127-0.359-3.142-0.705
		c-1.761-0.599-3.476-1.334-5.224-1.972c-2.746-1-5.545-1.662-8.512-1.393c-1.905,0.172-3.769,0.51-5.57,1.133
		c-3.637,1.258-6.778,3.295-9.436,6.088c-1.676,1.762-3.057,3.727-4.162,5.885c-2.264,4.422-3.197,9.171-3.368,14.093
		c-0.076,2.178,0.014,4.355,0.314,6.516c0.238,1.717,0.49,3.435,0.821,5.136c0.585,3.015,1.482,5.944,2.545,8.823
		c1.251,3.389,2.772,6.649,4.627,9.75c1.768,2.955,3.773,5.748,5.961,8.405c1.512,1.836,3.184,3.506,5.204,4.801
		c2.404,1.54,4.995,1.984,7.785,1.44c1.816-0.354,3.509-1.05,5.191-1.781c2.208-0.961,4.478-1.703,6.897-1.863
		c2.881-0.191,5.68,0.181,8.364,1.298c1.453,0.604,2.895,1.246,4.381,1.759c2.294,0.792,4.655,0.974,7.029,0.371
		c2.292-0.582,4.188-1.857,5.882-3.467c1.687-1.603,3.103-3.43,4.473-5.3c2.879-3.929,5.355-8.085,7.166-12.617
		c0.477-1.191,0.899-2.404,1.34-3.592c-7.556-3.746-12.205-9.507-12.791-18.044C75.686,45.435,79.604,39.124,86.473,34.347z
		 M49.943,23.789c0.62,0,1.192,0.018,1.763-0.003c1.888-0.071,3.668-0.594,5.372-1.373c3.287-1.503,5.972-3.74,8.048-6.703
		c2.848-4.062,4.362-8.521,4.054-13.53c-0.024-0.392-0.175-0.486-0.536-0.445c-1.626,0.181-3.206,0.539-4.733,1.13
		c-2.712,1.05-5.19,2.495-7.308,4.493c-3.481,3.286-5.706,7.283-6.567,12.008C49.771,20.812,49.75,22.271,49.943,23.789z"/>
	<path fill-rule="evenodd" clip-rule="evenodd" fill="#B2B2B2" d="M86.473,34.347c-6.869,4.777-10.787,11.088-10.199,19.649
		c0.586,8.537,5.235,14.298,12.791,18.044c-0.44,1.188-0.863,2.4-1.34,3.592c-1.811,4.532-4.287,8.688-7.166,12.617
		c-1.37,1.87-2.786,3.697-4.473,5.3c-1.693,1.609-3.59,2.885-5.882,3.467c-2.374,0.603-4.735,0.421-7.029-0.371
		c-1.486-0.513-2.928-1.154-4.381-1.759c-2.684-1.117-5.482-1.489-8.364-1.298c-2.419,0.16-4.689,0.902-6.897,1.863
		c-1.683,0.731-3.375,1.427-5.191,1.781c-2.791,0.544-5.381,0.1-7.785-1.44c-2.02-1.295-3.692-2.965-5.204-4.801
		c-2.188-2.657-4.193-5.45-5.961-8.405c-1.854-3.101-3.376-6.361-4.627-9.75c-1.063-2.879-1.96-5.809-2.545-8.823
		c-0.331-1.701-0.583-3.419-0.821-5.136c-0.3-2.16-0.39-4.338-0.314-6.516c0.171-4.922,1.104-9.67,3.368-14.093
		c1.105-2.158,2.485-4.123,4.162-5.885c2.658-2.793,5.799-4.831,9.436-6.088c1.801-0.623,3.666-0.96,5.57-1.133
		c2.967-0.269,5.766,0.393,8.512,1.393c1.749,0.638,3.463,1.373,5.224,1.972c1.015,0.345,2.085,0.667,3.142,0.705
		c0.954,0.035,1.958-0.224,2.876-0.538c2.512-0.858,4.975-1.855,7.485-2.716c1.983-0.68,4.028-1.113,6.146-1.146
		c4.165-0.065,8.131,0.749,11.837,2.677c2.955,1.537,5.402,3.676,7.357,6.375c0.08,0.111,0.153,0.228,0.227,0.343
		C86.446,34.261,86.456,34.303,86.473,34.347z"/>
	<path fill-rule="evenodd" clip-rule="evenodd" fill="#B2B2B2" d="M49.943,23.789c-0.193-1.517-0.172-2.977,0.092-4.424
		c0.861-4.726,3.086-8.723,6.567-12.008c2.117-1.998,4.596-3.443,7.308-4.493c1.527-0.591,3.107-0.949,4.733-1.13
		c0.361-0.041,0.512,0.053,0.536,0.445c0.309,5.01-1.206,9.468-4.054,13.53c-2.076,2.963-4.761,5.2-8.048,6.703
		c-1.704,0.779-3.484,1.302-5.372,1.373C51.136,23.806,50.563,23.789,49.943,23.789z"/>
</g>
</svg>
