<?xml version="1.0" encoding="utf-8"?>
<!-- Generator: Adobe Illustrator 16.0.0, SVG Export Plug-In . SVG Version: 6.00 Build 0)  -->
<!DOCTYPE svg PUBLIC "-//W3C//DTD SVG 1.1//EN" "http://www.w3.org/Graphics/SVG/1.1/DTD/svg11.dtd">
<svg version="1.1" id="Layer_1" xmlns="http://www.w3.org/2000/svg" xmlns:xlink="http://www.w3.org/1999/xlink" x="0px" y="0px"
	 width="100px" height="100px" viewBox="0 0 100 100" enable-background="new 0 0 100 100" xml:space="preserve">
<g>
	<path fill-rule="evenodd" clip-rule="evenodd" fill="#F04437" d="M92.621,12.13c1.008-0.005,2.018-0.048,3.024-0.006
		c2.474,0.101,4.433,2.018,4.523,4.497c0.065,1.818,0,3.641-0.007,5.461c-0.312,0.228-0.623,0.456-0.935,0.685
		c-3.58,2.631-7.159,5.263-10.739,7.894c-0.322,0.215-0.654,0.419-0.968,0.647C75.35,40.174,63.177,49.038,51.024,57.931
		c-0.647,0.474-1.029,0.458-1.666-0.008C37.205,49.032,25.032,40.168,12.861,31.3c-0.277-0.202-0.57-0.383-0.981-0.657
		c0,0.496,0,0.843,0,1.19c0,7.647,0.002,15.294,0,22.94c-0.004,11.162-0.011,22.323-0.017,33.484
		c-2.332,0.007-4.663,0.044-6.993,0.014c-2.032-0.027-3.638-1.211-4.382-3.117c-0.079-0.202-0.194-0.391-0.292-0.585
		c0-18.619,0-37.239,0-55.859c3.715,0.598,7.429,1.196,11.144,1.794c0.041-0.103,0.082-0.206,0.123-0.308
		c-0.113-0.067-0.232-0.125-0.338-0.202c-2.149-1.561-4.284-3.142-6.45-4.681c-1.472-1.046-2.984-2.034-4.479-3.048
		c0-2.148,0-4.297,0-6.445c0.177-0.371,0.343-0.747,0.532-1.111c0.851-1.63,2.218-2.489,4.036-2.585
		c0.999-0.053,2.003,0,3.005,0.005c0.224,0.185,0.439,0.381,0.673,0.552c13.642,9.947,27.29,19.887,40.917,29.853
		c0.642,0.469,1.031,0.47,1.672,0C61.504,34.866,72,27.23,82.485,19.58C85.872,17.108,89.243,14.614,92.621,12.13z"/>
	<path fill-rule="evenodd" clip-rule="evenodd" fill="#D32E2A" d="M0.195,22.266c1.495,1.014,3.007,2.002,4.479,3.048
		c2.166,1.539,4.3,3.12,6.45,4.681c0.106,0.077,0.226,0.135,0.338,0.202c-0.041,0.103-0.082,0.206-0.123,0.308
		C7.625,29.908,3.91,29.31,0.195,28.711C0.195,26.563,0.195,24.415,0.195,22.266z"/>
	<path fill-rule="evenodd" clip-rule="evenodd" fill="#F1F1F1" d="M11.862,88.259c0.006-11.161,0.013-22.322,0.017-33.484
		c0.003-7.646,0-15.293,0-22.94c0-0.348,0-0.695,0-1.19c0.411,0.274,0.704,0.455,0.981,0.657
		c12.17,8.868,24.344,17.731,36.497,26.623c0.637,0.466,1.019,0.481,1.666,0.008c12.152-8.893,24.325-17.756,36.496-26.624
		c0.313-0.228,0.646-0.432,0.968-0.647c0.008,0.456,0.022,0.911,0.023,1.366c0.005,18.744,0.01,37.488,0.014,56.231
		c-0.324,0.008-0.649,0.023-0.975,0.023c-24.904,0.001-49.809,0.001-74.714,0C12.512,88.28,12.187,88.267,11.862,88.259z"/>
	<path fill-rule="evenodd" clip-rule="evenodd" fill="#F1F1F1" d="M92.621,12.13c-3.378,2.484-6.749,4.978-10.136,7.45
		C72,27.23,61.504,34.866,51.031,42.535c-0.641,0.469-1.031,0.469-1.672,0C35.731,32.568,22.083,22.628,8.441,12.682
		c-0.234-0.171-0.449-0.367-0.673-0.552c0.293-0.007,0.586-0.019,0.878-0.019c27.699-0.001,55.398-0.001,83.096,0
		C92.036,12.111,92.329,12.123,92.621,12.13z"/>
	<path fill-rule="evenodd" clip-rule="evenodd" fill="#D22E2A" d="M88.525,88.257c-0.004-18.743-0.009-37.487-0.014-56.231
		c-0.001-0.456-0.016-0.911-0.023-1.366c3.58-2.631,7.159-5.263,10.739-7.894c0.312-0.229,0.623-0.457,0.935-0.685
		c0.011,0.357,0.031,0.714,0.031,1.071c0.002,19.879,0.002,39.758,0.001,59.637c0,3.679-1.824,5.496-5.521,5.494
		C92.624,88.281,90.575,88.266,88.525,88.257z"/>
</g>
</svg>
